<svg width="32" height="30" viewBox="0 0 32 30" fill="none" xmlns="http://www.w3.org/2000/svg">
<rect x="0.5" y="0.5" width="30.5" height="29" rx="14.5" stroke="#F08559"/>
<path d="M14.7743 9.00404C14.8152 9.00382 14.8561 9.0036 14.8983 9.00338C15.009 9.0029 15.1196 9.00284 15.2303 9.00303C15.323 9.00312 15.4158 9.00293 15.5085 9.00274C15.7271 9.00229 15.9458 9.00234 16.1644 9.0027C16.3896 9.00307 16.6149 9.00262 16.8401 9.00177C17.0342 9.00106 17.2283 9.00085 17.4223 9.00104C17.538 9.00115 17.6536 9.00107 17.7692 9.00052C17.8978 8.99994 18.0263 9.00038 18.1549 9.00093C18.1931 9.00062 18.2313 9.00032 18.2706 9C18.3056 9.00031 18.3406 9.00063 18.3766 9.00095C18.4069 9.00095 18.4373 9.00096 18.4686 9.00097C18.5762 9.02218 18.6156 9.06135 18.6819 9.14416C18.6985 9.20578 18.6985 9.20578 18.6985 9.27122C18.6989 9.29618 18.6992 9.32115 18.6995 9.34687C18.6992 9.37397 18.6989 9.40108 18.6986 9.42901C18.6988 9.47218 18.6988 9.47218 18.6991 9.51623C18.6995 9.61154 18.699 9.70682 18.6984 9.80212C18.6984 9.86864 18.6984 9.93516 18.6985 10.0017C18.6986 10.1414 18.6982 10.281 18.6974 10.4207C18.6965 10.5986 18.6965 10.7765 18.697 10.9545C18.6972 11.0921 18.6969 11.2296 18.6965 11.3672C18.6964 11.4327 18.6964 11.4983 18.6965 11.5638C18.697 11.9905 18.6844 12.3844 18.5112 12.7846C18.4244 13.0013 18.4312 13.2201 18.4314 13.4494C18.4287 14.1994 18.2296 14.9134 17.6879 15.4757C17.6604 15.4944 17.633 15.5131 17.6047 15.5324C17.4459 15.6453 17.3843 15.7471 17.3546 15.9331C17.3305 16.1974 17.3178 16.4564 17.4918 16.6759C17.5871 16.7782 17.6908 16.8688 17.8035 16.9531C17.8536 17.0029 17.8536 17.0029 17.8752 17.0806C17.9472 17.2119 18.0714 17.2355 18.2118 17.2842C18.2411 17.2947 18.2704 17.3052 18.3005 17.316C18.3626 17.3381 18.4248 17.3599 18.4871 17.3814C18.5817 17.4142 18.6756 17.4485 18.7696 17.4829C18.8301 17.5043 18.8906 17.5255 18.9512 17.5466C18.979 17.5569 19.0068 17.5672 19.0354 17.5778C19.246 17.6484 19.3971 17.6336 19.6097 17.5756C19.6491 17.5667 19.6885 17.5577 19.7291 17.5485C19.7786 17.5363 19.7786 17.5363 19.8292 17.5239C19.8801 17.5115 19.8801 17.5115 19.932 17.4988C19.9569 17.4926 19.9817 17.4865 20.0073 17.4801C20.0203 17.2248 20.0203 17.2248 19.92 16.9984C19.8741 16.9625 19.8272 16.9278 19.7794 16.8943C19.4522 16.6594 19.298 16.2288 19.2287 15.8594C19.2082 15.7205 19.2057 15.5819 19.2017 15.4419C19.1947 15.2001 19.1374 15.0208 19.0257 14.8049C18.877 14.5019 18.9427 14.1437 19.039 13.8338C19.1806 13.4575 19.4823 13.1386 19.8582 12.9661C20.1036 12.8622 20.3536 12.8253 20.6199 12.8257C20.6594 12.8253 20.6594 12.8253 20.6997 12.825C20.7856 12.8244 20.8716 12.8243 20.9575 12.8242C21.0177 12.824 21.0779 12.8238 21.138 12.8236C21.2636 12.8232 21.3892 12.8231 21.5148 12.8231C21.6757 12.8231 21.8366 12.8222 21.9975 12.8212C22.1216 12.8204 22.2456 12.8203 22.3696 12.8204C22.429 12.8203 22.4883 12.82 22.5477 12.8195C22.6305 12.8189 22.7132 12.8191 22.796 12.8194C22.8205 12.8191 22.8449 12.8187 22.8702 12.8184C22.9808 12.8197 23.0455 12.8281 23.1372 12.8895C23.1973 12.975 23.2051 13.0199 23.2054 13.1224C23.2059 13.1543 23.2063 13.1862 23.2067 13.219C23.2063 13.2705 23.2063 13.2705 23.2059 13.3231C23.206 13.3587 23.2062 13.3944 23.2063 13.4311C23.2064 13.5066 23.2061 13.5821 23.2056 13.6577C23.2049 13.7722 23.2056 13.8867 23.2064 14.0012C23.2063 14.0748 23.2062 14.1483 23.2059 14.2219C23.2062 14.2557 23.2064 14.2896 23.2067 14.3244C23.2032 14.6013 23.1422 14.8526 22.9987 15.0948C22.9316 15.2446 22.9431 15.3959 22.9419 15.5572C22.9343 15.8487 22.9147 16.0969 22.7907 16.3666C22.7791 16.392 22.7675 16.4174 22.7556 16.4436C22.6369 16.6723 22.4517 16.8853 22.2354 17.0338C22.154 17.0918 22.154 17.0918 22.1438 17.1781C22.1454 17.2056 22.147 17.2331 22.1487 17.2614C22.1498 17.2891 22.1509 17.3167 22.1521 17.3452C22.157 17.4176 22.157 17.4176 22.1942 17.4801C22.2811 17.508 22.3668 17.5323 22.4552 17.5551C22.5096 17.5698 22.564 17.5845 22.6184 17.5993C22.7041 17.6222 22.7899 17.645 22.8758 17.6673C23.6139 17.8601 23.6139 17.8601 23.8324 18.198C23.8474 18.2204 23.8623 18.2427 23.8778 18.2657C23.9669 18.4316 23.992 18.5771 23.9932 18.763C23.9934 18.7854 23.9936 18.8079 23.9938 18.8311C23.9945 18.9048 23.9946 18.9786 23.9947 19.0523C23.9949 19.1038 23.9951 19.1553 23.9953 19.2068C23.9957 19.3145 23.9959 19.4222 23.9958 19.5298C23.9958 19.6678 23.9967 19.8057 23.9979 19.9437C23.9986 20.0499 23.9987 20.1561 23.9987 20.2624C23.9988 20.3132 23.9991 20.3641 23.9996 20.415C24.0002 20.486 24 20.557 23.9996 20.6281C23.9997 20.6685 23.9998 20.7089 23.9999 20.7505C23.9835 20.8527 23.9835 20.8527 23.9235 20.9294C23.8176 21.0033 23.7466 20.9975 23.6191 20.98C23.524 20.9116 23.4904 20.874 23.4698 20.7606C23.4697 20.7249 23.4696 20.6892 23.4695 20.6525C23.469 20.6119 23.4686 20.5713 23.4681 20.5295C23.4683 20.4853 23.4685 20.4411 23.4687 20.3968C23.4683 20.3513 23.4679 20.3057 23.4675 20.2601C23.4664 20.1401 23.4661 20.0201 23.4659 19.9001C23.4656 19.7085 23.4644 19.517 23.4629 19.3254C23.4624 19.2587 23.4625 19.1921 23.4625 19.1255C23.4614 18.7714 23.4614 18.7714 23.3374 18.4426C23.099 18.2365 22.7254 18.1865 22.4221 18.1085C22.3773 18.0969 22.3325 18.0852 22.2877 18.0735C22.1793 18.0452 22.0708 18.0171 21.9623 17.9892C21.7176 18.143 21.4357 18.3424 21.3467 18.6222C21.2745 18.9582 21.3031 19.3153 21.3173 19.6558C21.3243 19.8404 21.3266 20.0252 21.3293 20.2099C21.3308 20.3079 21.3336 20.4058 21.3375 20.5037C21.3388 20.5482 21.3401 20.5926 21.3414 20.6371C21.3429 20.6758 21.3444 20.7144 21.3459 20.7543C21.3327 20.8527 21.3327 20.8527 21.2701 20.9288C21.1538 21.0139 21.0783 20.9953 20.9351 20.98C20.8465 20.9223 20.8371 20.8884 20.8026 20.7891C20.8015 20.7192 20.8026 20.6493 20.8047 20.5795C20.8059 20.5356 20.8071 20.4916 20.8082 20.4477C20.8092 20.4128 20.8092 20.4128 20.8102 20.3772C20.8138 20.2267 20.8148 20.0762 20.8161 19.9257C20.8174 19.794 20.8197 19.6624 20.8243 19.5308C20.8698 18.8462 20.8698 18.8462 20.5644 18.2577C20.4515 18.1581 20.3353 18.0686 20.2061 17.9892C20.1296 18.0102 20.0531 18.0312 19.9742 18.0528C19.9874 18.0729 20.0006 18.0929 20.0142 18.1135C20.0318 18.1407 20.0493 18.168 20.0674 18.196C20.0847 18.2226 20.102 18.2492 20.1198 18.2766C20.2806 18.5621 20.2876 18.815 20.2868 19.1331C20.2869 19.1824 20.2871 19.2317 20.2873 19.2809C20.2876 19.3837 20.2875 19.4865 20.2872 19.5893C20.2868 19.721 20.2875 19.8526 20.2885 19.9843C20.2891 20.0858 20.2891 20.1874 20.2889 20.2889C20.2889 20.3375 20.2891 20.386 20.2895 20.4346C20.29 20.5024 20.2896 20.5701 20.289 20.6379C20.289 20.6956 20.289 20.6956 20.289 20.7546C20.2691 20.8723 20.2389 20.91 20.1399 20.98C20.0239 20.9959 20.0239 20.9959 19.9079 20.98C19.8116 20.9094 19.7807 20.868 19.7423 20.7573C19.7392 20.6931 19.7381 20.6288 19.7381 20.5646C19.738 20.5248 19.7378 20.4851 19.7377 20.4442C19.7377 20.4229 19.7377 20.4017 19.7377 20.3798C19.7376 20.29 19.7369 20.2003 19.7362 20.1106C19.7349 19.9436 19.7339 19.7767 19.734 19.6097C19.734 19.4935 19.7332 19.3772 19.7319 19.261C19.7316 19.2169 19.7315 19.1729 19.7318 19.1288C19.7332 18.8535 19.7138 18.6316 19.5434 18.4028C19.4418 18.3057 19.3413 18.2534 19.209 18.2027C19.1741 18.1894 19.1393 18.176 19.1034 18.1622C19.0627 18.1471 19.022 18.132 18.9802 18.1165C18.9447 18.1033 18.9447 18.1033 18.9085 18.0899C18.7459 18.0297 18.5828 17.9707 18.4195 17.9124C18.362 17.8918 18.3045 17.8711 18.2471 17.8502C18.1634 17.8197 18.0794 17.7897 17.9954 17.7598C17.9698 17.7504 17.9442 17.741 17.9178 17.7313C17.7537 17.6722 17.7537 17.6722 17.5885 17.7029C17.5328 17.7712 17.4851 17.837 17.4376 17.9103C17.4165 17.9416 17.4165 17.9416 17.395 17.9734C17.335 18.0625 17.2758 18.1521 17.2166 18.2417C17.1732 18.3071 17.1294 18.3722 17.0855 18.4373C17.0724 18.4574 17.0594 18.4775 17.0459 18.4982C16.9311 18.6684 16.8088 18.7656 16.5986 18.8145C16.4468 18.8238 16.3245 18.8014 16.1968 18.721C16.1246 18.6586 16.0569 18.5924 15.9892 18.5255C15.9709 18.5076 15.9525 18.4897 15.9337 18.4713C15.8887 18.4274 15.8439 18.3833 15.7992 18.3392C15.7991 18.3704 15.799 18.4016 15.7988 18.4338C15.7976 18.7278 15.7957 19.0218 15.7931 19.3158C15.7918 19.4669 15.7907 19.6181 15.7902 19.7692C15.7897 19.9151 15.7886 20.0609 15.787 20.2068C15.7865 20.2624 15.7862 20.3181 15.7862 20.3738C15.7861 20.4517 15.7852 20.5296 15.7841 20.6075C15.7843 20.6306 15.7845 20.6536 15.7847 20.6774C15.7823 20.7866 15.7737 20.8433 15.7028 20.9306C15.628 20.9839 15.593 20.9981 15.501 20.9979C15.4682 20.9989 15.4682 20.9989 15.4347 21C15.3291 20.9681 15.2953 20.9089 15.2359 20.8209C15.2228 20.7346 15.2172 20.6612 15.2178 20.575C15.2175 20.5508 15.2171 20.5266 15.2168 20.5016C15.2158 20.4219 15.2157 20.3422 15.2157 20.2625C15.2152 20.2071 15.2147 20.1517 15.214 20.0963C15.2126 19.9507 15.2119 19.8051 15.2114 19.6596C15.2108 19.5109 15.2094 19.3623 15.2081 19.2136C15.2056 18.9221 15.2039 18.6307 15.2028 18.3392C15.174 18.3683 15.1452 18.3974 15.1155 18.4274C15.077 18.4657 15.0384 18.5039 14.9998 18.542C14.9809 18.5612 14.9621 18.5804 14.9426 18.6002C14.8082 18.7322 14.695 18.8106 14.4955 18.8202C14.472 18.8176 14.4484 18.8151 14.4241 18.8125C14.4005 18.8104 14.3769 18.8084 14.3526 18.8063C14.135 18.7457 14.022 18.6023 13.9045 18.4292C13.8894 18.4075 13.8742 18.3858 13.8586 18.3634C13.8106 18.2946 13.7632 18.2254 13.7158 18.1563C13.6832 18.1093 13.6506 18.0624 13.618 18.0154C13.5384 17.9009 13.4592 17.7861 13.3803 17.671C13.272 17.6901 13.1705 17.7148 13.0668 17.7502C13.0385 17.7598 13.0103 17.7693 12.9813 17.7792C12.9512 17.7896 12.9211 17.7999 12.89 17.8106C12.8586 17.8214 12.8272 17.8322 12.7948 17.8434C12.7284 17.8663 12.662 17.8892 12.5956 17.9123C12.4949 17.9471 12.394 17.9814 12.2931 18.0158C12.2284 18.0382 12.1636 18.0606 12.0989 18.0831C12.0691 18.0931 12.0393 18.1032 12.0085 18.1135C11.7481 18.2052 11.5033 18.3056 11.3583 18.544C11.2626 18.7555 11.2706 18.9722 11.2729 19.1989C11.2727 19.2444 11.2724 19.2899 11.2721 19.3355C11.2713 19.4544 11.2715 19.5733 11.2719 19.6923C11.2725 19.8831 11.2722 20.074 11.271 20.2649C11.2708 20.3312 11.2713 20.3976 11.2718 20.4639C11.2716 20.5245 11.2716 20.5245 11.2714 20.5862C11.2715 20.6217 11.2717 20.6571 11.2718 20.6936C11.257 20.8107 11.2147 20.896 11.1272 20.98C10.8876 20.9988 10.8876 20.9988 10.7925 20.9287C10.7095 20.8285 10.7127 20.7695 10.7124 20.6423C10.7122 20.6214 10.7119 20.6006 10.7117 20.5791C10.7111 20.5101 10.7115 20.4413 10.7119 20.3724C10.7118 20.3242 10.7117 20.276 10.7115 20.2278C10.7114 20.1266 10.7116 20.0255 10.7123 19.9244C10.713 19.7957 10.7126 19.667 10.7118 19.5382C10.7113 19.4386 10.7115 19.3389 10.7118 19.2392C10.7119 19.1918 10.7118 19.1444 10.7115 19.0971C10.7101 18.8383 10.7259 18.6132 10.8337 18.3722C10.8664 18.3093 10.8664 18.3093 10.8621 18.2438C10.7936 18.2038 10.7495 18.1783 10.6684 18.1856C10.5707 18.2216 10.5145 18.2792 10.4396 18.3491C10.1684 18.5907 9.9205 18.6725 9.5535 18.6678C9.21191 18.6371 8.98662 18.4717 8.7571 18.241C8.6821 18.1708 8.6821 18.1708 8.59782 18.1877C8.43791 18.2316 8.29355 18.3061 8.14501 18.377C8.09606 18.3994 8.09606 18.3994 8.04612 18.4223C7.8239 18.528 7.67106 18.6134 7.57826 18.8435C7.52734 19.0259 7.53936 19.2162 7.53952 19.4034C7.53902 19.4662 7.53851 19.5289 7.53797 19.5916C7.53672 19.7455 7.53615 19.8994 7.53596 20.0533C7.53582 20.14 7.53534 20.2267 7.53449 20.3134C7.53371 20.3948 7.53347 20.4763 7.53381 20.5578C7.53337 20.5947 7.53293 20.6315 7.53248 20.6695C7.53234 20.7181 7.53234 20.7181 7.53219 20.7677C7.51086 20.876 7.47322 20.9137 7.3829 20.98C7.2547 20.9976 7.18413 21.0037 7.07851 20.9282C6.99986 20.8294 7.00162 20.7708 7.00127 20.6471C7.00085 20.6054 7.00043 20.5636 7 20.5206C7.00024 20.4751 7.00051 20.4296 7.00081 20.384C7.00072 20.3371 7.00059 20.2902 7.00043 20.2433C7.00023 20.1449 7.00052 20.0465 7.00114 19.9481C7.00189 19.8226 7.00146 19.6972 7.00066 19.5718C7.00018 19.4748 7.00034 19.3778 7.00068 19.2808C7.00077 19.2346 7.00066 19.1884 7.00035 19.1422C6.99842 18.7739 7.05278 18.5099 7.32038 18.2363C7.55878 18.0221 7.88766 17.9029 8.17814 17.7665C8.13726 17.7439 8.13726 17.7439 8.09556 17.7209C7.43476 17.345 7.43476 17.345 7.2835 17.0347C7.2626 16.8599 7.29364 16.7405 7.3554 16.5774C7.46929 16.2313 7.46611 15.8534 7.48231 15.4936C7.51917 14.6764 7.61494 13.9298 8.26098 13.3308C8.72224 12.9458 9.2662 12.7981 9.86706 12.8298C10.458 12.8745 10.899 13.1611 11.2873 13.5664C11.6414 13.9846 11.7817 14.5053 11.8041 15.0337C11.8065 15.0836 11.8089 15.1334 11.8113 15.1833C11.8125 15.209 11.8137 15.2347 11.815 15.2612C11.8387 15.7879 11.8387 15.7879 11.9038 16.3109C11.9092 16.3437 11.9092 16.3437 11.9148 16.3771C11.941 16.5162 11.9844 16.6465 12.0342 16.7792C12.0707 16.893 12.063 16.9537 12.0218 17.0665C11.7935 17.3658 11.4896 17.5795 11.1603 17.7665C11.2568 17.7991 11.3299 17.8096 11.4263 17.7724C11.4524 17.7597 11.4786 17.747 11.5055 17.7339C11.6844 17.6528 11.8663 17.5884 12.0529 17.526C12.0825 17.516 12.112 17.506 12.1425 17.4957C12.2663 17.4539 12.3901 17.4122 12.5142 17.3715C12.6057 17.3415 12.6969 17.3105 12.788 17.2794C12.8161 17.2705 12.8442 17.2615 12.8731 17.2523C13.008 17.2055 13.0674 17.1847 13.1453 17.0644C13.1632 17.0182 13.1632 17.0182 13.1815 16.9711C13.2602 16.8873 13.2602 16.8873 13.3472 16.808C13.5535 16.6188 13.6267 16.525 13.6396 16.2494C13.6614 15.916 13.6614 15.916 13.5412 15.6156C13.4497 15.5319 13.4497 15.5319 13.3481 15.4585C13.2326 15.3683 13.1636 15.2762 13.0863 15.1555C13.074 15.1365 13.0618 15.1174 13.0492 15.0977C12.7136 14.5636 12.5811 14.0361 12.5747 13.4156C12.5681 13.1195 12.5492 12.8653 12.4278 12.5922C12.3105 12.2894 12.3086 11.9764 12.3096 11.6572C12.3097 11.5846 12.3089 11.5119 12.308 11.4393C12.3054 10.8599 12.4355 10.3379 12.817 9.87595C12.8388 9.84941 12.8606 9.82288 12.8831 9.79554C13.3668 9.24346 14.0343 9.00122 14.7743 9.00404ZM13.3346 10.0666C12.951 10.5228 12.8363 10.9708 12.8378 11.5463C12.8377 11.5689 12.8377 11.5915 12.8377 11.6148C12.8384 11.9898 12.8485 12.3694 13.0359 12.7084C13.1197 12.8913 13.0973 13.1024 13.0987 13.2982C13.1043 14.0656 13.3115 14.6996 13.8774 15.253C13.8998 15.2753 13.9222 15.2976 13.9453 15.3206C14.2428 15.596 14.6322 15.7829 15.0371 15.8575C15.0679 15.8632 15.0987 15.869 15.1304 15.8749C15.785 15.9644 16.4215 15.8123 16.9527 15.4319C16.9997 15.3943 17.0459 15.3558 17.0915 15.3166C17.1166 15.295 17.1418 15.2735 17.1677 15.2512C17.5855 14.8723 17.8592 14.3477 17.8945 13.794C17.8971 13.6858 17.8972 13.5776 17.897 13.4694C17.8974 13.0449 17.946 12.6877 18.1186 12.294C18.1566 12.1557 18.1562 12.0194 18.1555 11.8774C18.1555 11.8392 18.1555 11.8392 18.1556 11.8002C18.1555 11.7164 18.1553 11.6325 18.155 11.5487C18.155 11.4904 18.1549 11.4322 18.1549 11.3739C18.1547 11.2208 18.1544 11.0677 18.1541 10.9146C18.1537 10.7583 18.1536 10.6019 18.1534 10.4456C18.153 10.1391 18.1525 9.83251 18.1518 9.52596C17.6679 9.52223 17.1839 9.51943 16.7 9.51772C16.4752 9.5169 16.2505 9.51579 16.0258 9.51396C15.8085 9.51219 15.5913 9.51128 15.3741 9.51087C15.2916 9.51058 15.209 9.51001 15.1265 9.50914C14.4438 9.50229 13.8309 9.55695 13.3346 10.0666ZM8.7083 13.6621C8.67413 13.6858 8.63996 13.7094 8.60475 13.7337C8.25964 14.0507 8.0611 14.5069 8.04319 14.9646C8.04038 15.1032 8.04209 15.2416 8.0456 15.3802C8.07704 15.3934 8.10847 15.4065 8.14086 15.42C8.2479 15.4776 8.27511 15.4942 8.31068 15.603C8.3221 15.6623 8.33161 15.7221 8.33967 15.7819C8.40506 16.1709 8.56374 16.4266 8.88174 16.6801C9.19315 16.8949 9.52307 16.9435 9.90116 16.9074C10.2584 16.8321 10.5665 16.6337 10.78 16.3495C10.8829 16.1847 10.9556 16.0145 10.9677 15.8217C10.7881 15.4041 10.3803 15.1681 9.96743 14.9984C9.84685 14.9566 9.72846 14.9274 9.60295 14.903C9.57339 14.8944 9.54383 14.8858 9.51338 14.877C9.40797 14.854 9.34426 14.8471 9.23846 14.8712C9.11647 14.9528 9.01912 15.0585 8.92148 15.1652C8.83026 15.2645 8.81162 15.2818 8.67724 15.2927C8.57576 15.2848 8.57576 15.2848 8.5157 15.249C8.45834 15.162 8.44533 15.1017 8.44322 14.9984C8.53442 14.8462 8.64908 14.7283 8.77871 14.6067C8.79652 14.5896 8.81434 14.5725 8.83269 14.5549C8.96568 14.4287 9.02613 14.3889 9.21154 14.386C10.032 14.3944 10.6954 14.7392 11.2597 15.2848C11.2749 14.7212 11.1698 14.1926 10.7544 13.7655C10.4236 13.4708 9.99649 13.3161 9.54548 13.3318C9.22565 13.3678 8.96135 13.4736 8.7083 13.6621ZM19.676 13.7576C19.5063 13.9766 19.4534 14.2292 19.4875 14.497C19.5148 14.6021 19.5602 14.6903 19.6097 14.7877C19.7371 15.0538 19.7336 15.3092 19.7399 15.5979C19.7526 15.9744 19.9288 16.3186 20.1972 16.5901C20.4894 16.8341 20.8175 16.9247 21.1974 16.9174C21.5909 16.8791 21.919 16.6642 22.1702 16.3807C22.2605 16.2579 22.3125 16.1272 22.3599 15.9848C22.3763 15.9375 22.3763 15.9375 22.3931 15.8893C22.3953 15.8346 22.3959 15.7798 22.3954 15.725C22.3957 15.6919 22.3961 15.6587 22.3964 15.6246C22.3969 15.5562 22.3967 15.4879 22.3956 15.4195C22.3996 15.1968 22.4466 15.0353 22.5431 14.8367C22.6891 14.5299 22.6849 14.2467 22.6726 13.9147C22.6715 13.8589 22.6704 13.8031 22.6695 13.7473C22.6669 13.6128 22.663 13.4784 22.6581 13.344C22.3626 13.3403 22.0671 13.3374 21.7715 13.3357C21.6342 13.3349 21.4969 13.3338 21.3597 13.332C21.2269 13.3302 21.0941 13.3293 20.9613 13.3289C20.911 13.3286 20.8606 13.328 20.8103 13.3272C20.3516 13.3196 19.9745 13.3969 19.676 13.7576ZM14.1756 16.112C14.1528 16.2448 14.1473 16.3615 14.1756 16.4938C14.2573 16.5899 14.3601 16.645 14.4706 16.7075C14.5891 16.7772 14.7024 16.8542 14.8167 16.9299C14.9409 17.0121 15.0655 17.0936 15.1908 17.1742C15.2379 17.2052 15.2844 17.237 15.3295 17.2705C15.384 17.3125 15.384 17.3125 15.4678 17.3529C15.596 17.3267 15.6958 17.2542 15.8033 17.1839C15.8376 17.1615 15.8719 17.1392 15.9073 17.1161C15.9265 17.1034 15.9458 17.0908 15.9657 17.0777C16.0407 17.0284 16.116 16.9794 16.1912 16.9304C16.2476 16.8936 16.304 16.8568 16.3604 16.82C16.3875 16.8023 16.4145 16.7847 16.4424 16.7665C16.4933 16.7331 16.544 16.6994 16.5945 16.6655C16.6495 16.6286 16.7055 16.5929 16.7617 16.5575C16.8357 16.4969 16.8357 16.4969 16.8426 16.3979C16.8406 16.3639 16.8387 16.33 16.8367 16.295C16.8345 16.2435 16.8345 16.2435 16.8322 16.1911C16.8303 16.165 16.8284 16.1389 16.8264 16.112C16.7993 16.1207 16.7993 16.1207 16.7716 16.1296C16.7187 16.1465 16.6658 16.1633 16.6128 16.1801C16.5603 16.1971 16.508 16.2146 16.4559 16.2328C15.7888 16.4628 14.9942 16.4314 14.353 16.1435C14.2738 16.1059 14.2738 16.1059 14.1756 16.112ZM7.9462 16.3666C7.92851 16.4321 7.91136 16.4977 7.89442 16.5634C7.88481 16.6 7.8752 16.6365 7.8653 16.6742C7.8471 16.7784 7.84511 16.8398 7.87993 16.9393C8.0721 17.1367 8.32267 17.2428 8.57576 17.3529C8.5867 17.3529 8.59763 17.3529 8.6089 17.3529C8.62829 17.2505 8.63683 17.1969 8.6089 17.0983C8.53414 17.0192 8.45247 16.955 8.36634 16.8874C8.23199 16.7733 8.14278 16.6371 8.0456 16.4938C8.01282 16.4512 7.97979 16.4086 7.9462 16.3666ZM11.326 16.3984C11.296 16.4455 11.2672 16.4934 11.239 16.5416C11.121 16.7333 10.9912 16.9083 10.7979 17.0347C10.7238 17.0908 10.7238 17.0908 10.7194 17.1625C10.7192 17.226 10.724 17.2896 10.7295 17.3529C10.9465 17.2692 11.1372 17.1672 11.326 17.0347C11.3547 17.015 11.3834 16.9953 11.4129 16.9751C11.4725 16.8867 11.461 16.8232 11.4418 16.722C11.416 16.6136 11.3891 16.5059 11.3591 16.3984C11.3482 16.3984 11.3372 16.3984 11.326 16.3984ZM13.8401 17.0586C13.8215 17.0748 13.803 17.0911 13.7839 17.1078C13.7385 17.1584 13.7385 17.1584 13.7499 17.2152C13.7909 17.3235 13.8566 17.4151 13.9227 17.5105C13.9371 17.5315 13.9515 17.5525 13.9664 17.5741C13.9969 17.6184 14.0275 17.6625 14.0581 17.7067C14.1051 17.7744 14.1516 17.8425 14.198 17.9107C14.2277 17.9536 14.2574 17.9965 14.2871 18.0394C14.301 18.0599 14.3149 18.0804 14.3292 18.1015C14.3638 18.1507 14.402 18.1975 14.4407 18.2438C14.5401 18.2538 14.5401 18.2538 14.6 18.197C14.6217 18.1757 14.6434 18.1544 14.6657 18.1324C14.6893 18.1094 14.7129 18.0865 14.7373 18.0628C14.7617 18.0385 14.7862 18.0142 14.8114 17.9892C14.8362 17.9649 14.861 17.9407 14.8866 17.9156C14.948 17.8555 15.0092 17.7952 15.0702 17.7347C14.9634 17.6272 14.8586 17.5405 14.7285 17.4603C14.5325 17.3378 14.3399 17.2111 14.148 17.0826C13.9858 16.9582 13.9858 16.9582 13.8401 17.0586ZM16.8889 17.0585C16.8614 17.0771 16.8339 17.0958 16.8055 17.115C16.7762 17.1351 16.7468 17.1552 16.7166 17.1759C16.6565 17.2167 16.5964 17.2575 16.5363 17.2983C16.5068 17.3184 16.4773 17.3385 16.4469 17.3592C16.3337 17.4361 16.2198 17.5119 16.1057 17.5875C16.0717 17.6101 16.0377 17.6326 16.0027 17.6559C15.9676 17.6791 15.9676 17.6791 15.9317 17.7029C16.0549 17.8467 16.1849 17.982 16.3211 18.1145C16.3371 18.1303 16.3531 18.1461 16.3696 18.1624C16.4102 18.2014 16.4525 18.2386 16.495 18.2756C16.5169 18.2756 16.5388 18.2756 16.5613 18.2756C16.6196 18.2001 16.6738 18.1245 16.7272 18.0459C16.7433 18.0226 16.7594 17.9993 16.776 17.9753C16.8275 17.9005 16.8787 17.8256 16.9299 17.7506C16.9647 17.7 16.9995 17.6494 17.0344 17.5988C17.1199 17.4746 17.2052 17.3501 17.2903 17.2256C17.2588 17.183 17.227 17.1406 17.195 17.0983C17.1773 17.0747 17.1596 17.0511 17.1414 17.0268C17.1249 17.0084 17.1084 16.99 17.0915 16.9711C16.9999 16.9711 16.9633 17.0077 16.8889 17.0585ZM9.13906 17.3529C9.09681 17.5143 9.06681 17.6631 9.07279 17.8301C9.18152 17.9968 9.34595 18.0859 9.53668 18.1483C9.73338 18.17 9.8378 18.1441 10.002 18.0396C10.0234 18.0229 10.0448 18.0063 10.0668 17.9892C10.0969 17.9662 10.127 17.9433 10.158 17.9196C10.2406 17.8205 10.2473 17.7714 10.2353 17.6465C10.2323 17.6251 10.2294 17.6036 10.2263 17.5816C10.224 17.5595 10.2216 17.5375 10.2192 17.5148C10.2134 17.4607 10.2065 17.4068 10.1994 17.3529C10.1512 17.3606 10.1512 17.3606 10.102 17.3685C9.95753 17.3883 9.81497 17.3894 9.66922 17.3887C9.63103 17.3889 9.63103 17.3889 9.59207 17.389C9.43767 17.3888 9.29135 17.3774 9.13906 17.3529ZM20.5375 17.3529C20.5221 17.4408 20.5162 17.4903 20.5375 17.5756C20.6139 17.6772 20.7069 17.7593 20.8026 17.8441C20.8279 17.8673 20.8532 17.8906 20.8792 17.9146C20.9415 17.9718 21.0043 18.0285 21.0677 18.0847C21.2774 17.9135 21.2774 17.9135 21.4818 17.7367C21.5109 17.7114 21.5399 17.6862 21.5699 17.6602C21.644 17.5761 21.644 17.5761 21.6237 17.4542C21.6152 17.4207 21.6066 17.3873 21.5978 17.3529C21.5491 17.3606 21.5491 17.3606 21.4993 17.3685C21.3613 17.3874 21.2255 17.3894 21.0863 17.3887C21.0627 17.3888 21.0391 17.3889 21.0148 17.389C20.853 17.3888 20.6976 17.3747 20.5375 17.3529Z" fill="#F08559"/>
<path d="M16.3293 11.2759C16.3523 11.2813 16.3752 11.2868 16.3989 11.2924C16.8499 11.4038 17.3215 11.587 17.6216 11.944C17.6503 12.0731 17.6421 12.1253 17.5843 12.2423C17.4968 12.3152 17.4388 12.3237 17.3234 12.3258C17.1993 12.2818 17.1051 12.2167 17.0024 12.1389C16.4587 11.7432 15.7274 11.7152 15.0723 11.7173C15.036 11.7174 15.036 11.7174 14.999 11.7174C14.6354 11.7179 14.2731 11.7257 13.9105 11.7531C13.9108 11.7717 13.9112 11.7904 13.9115 11.8095C13.9129 11.8941 13.9138 11.9787 13.9146 12.0633C13.9152 12.0926 13.9157 12.1219 13.9163 12.1521C13.9165 12.1804 13.9167 12.2087 13.917 12.2378C13.9173 12.2638 13.9177 12.2898 13.918 12.3166C13.9097 12.3976 13.8884 12.4477 13.8442 12.5167C13.7608 12.5768 13.7174 12.5806 13.6123 12.5764C13.4958 12.5438 13.4559 12.5114 13.3803 12.4213C13.3531 12.2927 13.3604 12.1625 13.3617 12.0315C13.3609 11.9963 13.3601 11.9611 13.3593 11.9248C13.3597 11.7007 13.3858 11.5404 13.546 11.3713C14.0744 10.9381 15.6923 11.1204 16.3293 11.2759Z" fill="#F08559"/>
<path d="M20.964 14.1339C21.8531 14.2321 21.8531 14.2321 22.128 14.4894C22.1585 14.5776 22.1513 14.6542 22.128 14.7439C22.0617 14.8254 22.0617 14.8254 21.9623 14.8712C21.8145 14.8688 21.6991 14.8415 21.5614 14.793C21.3914 14.7378 21.2225 14.7134 21.0449 14.6922C21.0131 14.6882 20.9813 14.6842 20.9485 14.68C20.7308 14.6533 20.5143 14.635 20.2949 14.6265C20.2047 14.6165 20.1494 14.6004 20.0736 14.553C20.0225 14.4666 20.0064 14.4117 20.0115 14.3124C20.1412 13.9654 20.6626 14.1038 20.964 14.1339Z" fill="#F08559"/>
<path d="M22.8238 18.9755C22.9213 19.0728 22.9358 19.1429 22.9366 19.2759C22.937 19.3105 22.9374 19.3451 22.9379 19.3808C22.9378 19.418 22.9377 19.4552 22.9376 19.4936C22.9378 19.5319 22.9379 19.5703 22.9381 19.6098C22.9383 19.6909 22.9383 19.772 22.938 19.8531C22.9377 19.9773 22.9387 20.1015 22.9397 20.2257C22.9398 20.3045 22.9398 20.3832 22.9397 20.462C22.9402 20.5178 22.9402 20.5178 22.9408 20.5748C22.9403 20.6267 22.9403 20.6267 22.9398 20.6797C22.9398 20.7101 22.9398 20.7405 22.9398 20.7718C22.9182 20.8772 22.8782 20.915 22.7907 20.98C22.6747 20.9959 22.6747 20.9959 22.5587 20.98C22.4624 20.9094 22.4315 20.868 22.3931 20.7573C22.3898 20.7069 22.3885 20.6563 22.3882 20.6058C22.388 20.5752 22.3878 20.5445 22.3876 20.5128C22.3876 20.4797 22.3875 20.4466 22.3875 20.4125C22.3873 20.3614 22.3873 20.3614 22.3872 20.3092C22.387 20.237 22.3869 20.1649 22.3869 20.0927C22.3868 19.9824 22.3862 19.8721 22.3856 19.7618C22.3855 19.6917 22.3855 19.6216 22.3854 19.5515C22.3851 19.502 22.3851 19.502 22.3847 19.4515C22.3849 19.4052 22.3849 19.4052 22.385 19.3579C22.385 19.3309 22.3849 19.3038 22.3849 19.2759C22.3984 19.1474 22.4299 19.0627 22.5339 18.9795C22.6485 18.9345 22.7066 18.9388 22.8238 18.9755Z" fill="#F08559"/>
<path d="M8.47635 19.2937C8.56816 19.3575 8.58681 19.4123 8.60889 19.5164C8.61283 19.6091 8.61511 19.7009 8.61562 19.7936C8.61581 19.8205 8.616 19.8474 8.61619 19.8751C8.6165 19.932 8.61672 19.9888 8.61685 20.0457C8.61717 20.1323 8.6182 20.219 8.61924 20.3056C8.61946 20.361 8.61963 20.4163 8.61976 20.4717C8.62017 20.4974 8.62058 20.5232 8.621 20.5497C8.62036 20.7058 8.59979 20.813 8.50948 20.9482C8.40704 20.9974 8.32412 20.9893 8.21127 20.98C8.13852 20.9363 8.13852 20.9363 8.07873 20.8527C8.05913 20.743 8.06096 20.6346 8.06229 20.5235C8.06224 20.4914 8.06219 20.4593 8.06214 20.4263C8.0622 20.3585 8.06258 20.2908 8.06327 20.2231C8.06423 20.1192 8.06395 20.0154 8.06352 19.9116C8.06373 19.8458 8.064 19.78 8.06436 19.7142C8.06426 19.683 8.06417 19.6519 8.06407 19.6198C8.06449 19.591 8.06491 19.5621 8.06534 19.5323C8.06552 19.5069 8.0657 19.4815 8.06588 19.4553C8.08203 19.3722 8.10901 19.3449 8.17813 19.2937C8.29575 19.2561 8.35705 19.2651 8.47635 19.2937Z" fill="#F08559"/>
<path d="M18.6157 19.5164C18.7015 19.64 18.6927 19.7447 18.6931 19.8882C18.6933 19.9153 18.6935 19.9424 18.6937 19.9703C18.6941 20.0276 18.6942 20.0849 18.6942 20.1422C18.6944 20.2299 18.6956 20.3175 18.6968 20.4051C18.697 20.4608 18.6971 20.5165 18.6972 20.5722C18.6977 20.5984 18.6982 20.6246 18.6987 20.6516C18.6971 20.8334 18.6971 20.8334 18.6189 20.9329C18.5015 21.0124 18.4254 20.995 18.2843 20.98C18.1957 20.9224 18.1863 20.8884 18.1518 20.7891C18.1478 20.7064 18.1455 20.6245 18.145 20.5418C18.1449 20.5176 18.1447 20.4934 18.1445 20.4684C18.1442 20.4172 18.1439 20.366 18.1438 20.3149C18.1435 20.2368 18.1425 20.1587 18.1414 20.0807C18.1412 20.0309 18.141 19.9811 18.1409 19.9313C18.1405 19.908 18.1401 19.8848 18.1397 19.8609C18.1403 19.7187 18.1612 19.63 18.2512 19.5164C18.374 19.4195 18.4767 19.4645 18.6157 19.5164Z" fill="#F08559"/>
<path d="M12.7508 19.5164C12.8405 19.5975 12.8502 19.6442 12.8636 19.7637C12.8644 19.8118 12.8647 19.8599 12.8645 19.908C12.8647 19.9336 12.8649 19.9592 12.8651 19.9855C12.8653 20.0395 12.8652 20.0935 12.865 20.1475C12.8647 20.2299 12.8656 20.3123 12.8667 20.3947C12.8667 20.4472 12.8667 20.4998 12.8666 20.5523C12.8672 20.5891 12.8672 20.5891 12.8677 20.6267C12.8661 20.746 12.8545 20.8145 12.787 20.916C12.7176 20.98 12.7176 20.98 12.6514 21C12.6186 20.999 12.6186 20.999 12.5851 20.9979C12.5632 20.9979 12.5414 20.998 12.5188 20.998C12.4186 20.9708 12.3832 20.9327 12.32 20.8527C12.3002 20.7597 12.3014 20.6681 12.3024 20.5733C12.3023 20.5463 12.3022 20.5192 12.302 20.4913C12.3019 20.4342 12.3022 20.3771 12.3027 20.32C12.3034 20.2326 12.3027 20.1453 12.3019 20.0579C12.302 20.0024 12.3022 19.9468 12.3024 19.8913C12.3021 19.8652 12.3019 19.8391 12.3016 19.8122C12.3037 19.6921 12.305 19.6313 12.3812 19.5328C12.522 19.4377 12.5978 19.4521 12.7508 19.5164Z" fill="#F08559"/>
</svg>
