<svg width="32" height="30" viewBox="0 0 32 30" fill="none" xmlns="http://www.w3.org/2000/svg">
<rect x="0.5" y="0.5" width="30.5" height="29" rx="14.5" stroke="#F08559"/>
<path d="M15.8389 7.50313C15.8596 7.50297 15.8804 7.50281 15.9018 7.50265C15.9457 7.50239 15.9895 7.50221 16.0334 7.5021C16.0988 7.50183 16.1642 7.50097 16.2296 7.50009C17.0479 7.49438 17.8531 7.7545 18.5021 8.2589C18.5278 8.27852 18.5535 8.29815 18.58 8.31837C19.1293 8.75244 19.5782 9.29147 19.6668 10.0092C19.6695 10.082 19.6711 10.1541 19.6712 10.2269C19.6714 10.2478 19.6715 10.2686 19.6716 10.2901C19.672 10.3587 19.6722 10.4273 19.6724 10.4958C19.6725 10.5195 19.6725 10.5432 19.6726 10.5676C19.673 10.6932 19.6733 10.8188 19.6734 10.9445C19.6736 11.0727 19.6742 11.2009 19.675 11.3291C19.6756 11.429 19.6757 11.5289 19.6757 11.6288C19.6758 11.6759 19.676 11.7231 19.6764 11.7703C19.6841 12.8265 19.3448 13.7329 18.6061 14.4978C18.0853 15.01 18.0853 15.01 17.892 15.01C17.892 15.3584 17.892 15.7068 17.892 16.0658C18.0018 16.0841 18.1116 16.1024 18.2248 16.1213C18.2996 16.1365 18.3744 16.1522 18.449 16.1688C18.4689 16.1732 18.4888 16.1776 18.5093 16.1821C18.5738 16.1964 18.6382 16.2108 18.7027 16.2252C18.7484 16.2354 18.7941 16.2455 18.8398 16.2557C18.9352 16.277 19.0306 16.2983 19.1259 16.3197C19.2468 16.3468 19.3678 16.3736 19.4887 16.4003C19.5831 16.4213 19.6774 16.4424 19.7717 16.4635C19.8162 16.4734 19.8607 16.4833 19.9052 16.4932C20.7529 16.6804 21.493 16.9824 21.9884 17.74C22.2249 18.1195 22.3611 18.5487 22.5013 18.9704C22.5221 19.0325 22.543 19.0945 22.5638 19.1566C22.6071 19.2857 22.6501 19.4149 22.693 19.5442C22.7478 19.7092 22.8033 19.8739 22.859 20.0386C22.902 20.1663 22.9447 20.2941 22.9871 20.4221C23.0074 20.4829 23.0278 20.5436 23.0484 20.6043C23.2919 21.3233 23.2919 21.3233 23.1695 21.5823C23.0835 21.6731 23.0115 21.7266 22.8862 21.7454C22.7564 21.7456 22.6573 21.7434 22.5369 21.6917C22.3837 21.5383 22.3257 21.3222 22.2601 21.1199C22.2512 21.0928 22.2422 21.0656 22.233 21.0377C22.2137 20.9791 22.1945 20.9205 22.1754 20.8619C22.145 20.7688 22.1143 20.6758 22.0836 20.5828C21.9965 20.3186 21.9097 20.0542 21.8231 19.7898C21.7699 19.6277 21.7165 19.4657 21.663 19.3038C21.6428 19.2424 21.6226 19.1809 21.6026 19.1194C21.3961 18.486 21.1738 17.954 20.5672 17.6114C20.2847 17.4783 19.9672 17.419 19.6668 17.3437C19.6668 17.6463 19.6668 17.9488 19.6668 18.2606C19.804 18.3018 19.804 18.3018 19.9441 18.3439C20.1732 18.4415 20.3512 18.5857 20.5264 18.7606C20.5441 18.7777 20.5618 18.7948 20.58 18.8124C20.9289 19.176 21.011 19.6541 21.0098 20.1392C21.01 20.1769 21.0101 20.2146 21.0103 20.2523C21.0105 20.3306 21.0105 20.4088 21.0102 20.4871C21.0099 20.587 21.0104 20.6869 21.0112 20.7868C21.0118 20.8643 21.0117 20.9419 21.0116 21.0194C21.0116 21.074 21.012 21.1287 21.0125 21.1833C21.0101 21.4888 21.0101 21.4888 20.8869 21.6222C20.7326 21.7728 20.5486 21.7498 20.3462 21.7472C20.3126 21.7477 20.279 21.7481 20.2444 21.7486C19.9404 21.7472 19.9404 21.7472 19.8054 21.6222C19.7071 21.5101 19.6861 21.412 19.6885 21.2627C19.7018 21.1358 19.7562 21.0582 19.8487 20.9746C19.9535 20.9019 20.0111 20.8971 20.1382 20.8999C20.1369 20.7512 20.135 20.6025 20.1324 20.4537C20.1316 20.4033 20.1311 20.3528 20.1307 20.3024C20.1275 19.9242 20.116 19.6021 19.8411 19.3148C19.6483 19.1503 19.4304 19.084 19.1804 19.0882C18.9297 19.1097 18.7339 19.2114 18.5652 19.3965C18.4026 19.6002 18.3512 19.7975 18.3492 20.0534C18.3487 20.0777 18.3482 20.1021 18.3477 20.1272C18.3462 20.2042 18.3453 20.2811 18.3444 20.3581C18.3434 20.4107 18.3425 20.4632 18.3415 20.5157C18.3391 20.6438 18.3373 20.7718 18.3357 20.8999C18.3613 20.8989 18.387 20.8979 18.4134 20.8968C18.5289 20.9008 18.5791 20.9394 18.6685 21.011C18.7728 21.1297 18.7832 21.2454 18.7794 21.4C18.7495 21.5415 18.6768 21.6259 18.5575 21.7056C18.4349 21.767 18.2694 21.741 18.1347 21.742C18.1006 21.7428 18.0665 21.7437 18.0314 21.7445C17.7131 21.7467 17.7131 21.7467 17.587 21.6222C17.4358 21.4605 17.4604 21.2727 17.4623 21.062C17.4623 21.0232 17.4622 20.9844 17.4622 20.9455C17.4621 20.8642 17.4625 20.7829 17.4631 20.7016C17.4639 20.5983 17.4638 20.495 17.4635 20.3917C17.4633 20.3115 17.4635 20.2312 17.4638 20.151C17.464 20.0947 17.4639 20.0384 17.4638 19.9821C17.4688 19.4831 17.6242 19.0653 17.9752 18.7051C18.2155 18.4913 18.4897 18.3242 18.8071 18.2606C18.8071 17.8938 18.8071 17.5271 18.8071 17.1493C18.6467 17.1175 18.6467 17.1175 18.483 17.085C18.2601 17.0408 18.0385 16.9954 17.8187 16.9376C17.7446 16.9256 17.7117 16.9258 17.6424 16.9548C17.5907 17.0211 17.5907 17.0211 17.5451 17.1064C17.5315 17.13 17.5315 17.13 17.5177 17.1541C17.4981 17.1882 17.4788 17.2225 17.4595 17.2568C17.4185 17.33 17.3767 17.4027 17.3349 17.4754C17.3132 17.5133 17.2914 17.5512 17.2698 17.5891C17.1564 17.7871 17.0384 17.9823 16.9197 18.1772C16.9009 18.2081 16.8822 18.239 16.8628 18.2708C16.8267 18.3303 16.7904 18.3897 16.7541 18.449C16.7158 18.5119 16.6777 18.5748 16.6398 18.638C16.6201 18.6706 16.6004 18.7033 16.5807 18.7359C16.5631 18.7651 16.5456 18.7943 16.5275 18.8244C16.4472 18.9456 16.3679 19.0196 16.2282 19.0662C16.0988 19.0813 16.0042 19.0793 15.8867 19.0194C15.7686 18.9175 15.6882 18.8001 15.61 18.6659C15.5927 18.6365 15.5755 18.6071 15.5577 18.5768C15.5393 18.5452 15.5209 18.5136 15.502 18.4811C15.4624 18.4135 15.4227 18.346 15.3829 18.2785C15.3727 18.2611 15.3625 18.2437 15.352 18.2258C15.2389 18.0338 15.1237 17.8432 15.008 17.6528C14.9892 17.6217 14.9703 17.5906 14.9508 17.5585C14.8227 17.3476 14.6937 17.1372 14.5643 16.927C14.5363 16.9327 14.5363 16.9327 14.5078 16.9384C14.4203 16.9561 14.3329 16.9737 14.2454 16.9913C14.2161 16.9972 14.1868 17.0031 14.1565 17.0092C13.9138 17.058 13.6708 17.1035 13.4274 17.1493C13.4274 17.8185 13.4274 18.4878 13.4274 19.1774C13.4915 19.1957 13.5555 19.2141 13.6215 19.2329C13.9585 19.4245 14.1668 19.701 14.287 20.0664C14.3732 20.4044 14.3311 20.784 14.1611 21.0873C14.114 21.1582 14.0642 21.2235 14.0097 21.2888C13.9932 21.3089 13.9766 21.3289 13.9596 21.3495C13.7524 21.5777 13.4472 21.7268 13.1385 21.7427C12.6821 21.7514 12.3584 21.6504 12.0183 21.334C11.755 21.0565 11.6654 20.6893 11.6727 20.3162C11.686 20.0412 11.7916 19.8091 11.9577 19.5941C11.9777 19.5655 11.9977 19.5368 12.0183 19.5073C12.1604 19.3419 12.3659 19.2448 12.5678 19.1774C12.5678 18.5723 12.5678 17.9672 12.5678 17.3437C11.8641 17.5336 11.2929 17.7044 10.9221 18.3351C10.8184 18.5432 10.7529 18.7677 10.6803 18.9881C10.6615 19.0444 10.6427 19.1006 10.6238 19.1569C10.5273 19.4449 10.4323 19.7336 10.3373 20.0222C10.2847 20.182 10.2319 20.3419 10.1791 20.5017C10.1402 20.6195 10.1016 20.7373 10.0632 20.8552C10.039 20.9294 10.0145 21.0034 9.99007 21.0775C9.97327 21.1286 9.95672 21.1798 9.94019 21.2309C9.82276 21.585 9.82276 21.585 9.67328 21.7013C9.54157 21.7594 9.40863 21.7506 9.26783 21.7334C9.13924 21.6723 9.08304 21.6078 9.01825 21.4833C8.94363 21.1653 9.11545 20.8119 9.21572 20.516C9.2363 20.4543 9.25684 20.3925 9.27734 20.3307C9.32037 20.2013 9.36374 20.0722 9.40736 19.943C9.46274 19.7791 9.51739 19.6149 9.5718 19.4507C9.61415 19.323 9.65685 19.1954 9.69964 19.0679C9.71988 19.0075 9.74003 18.947 9.76009 18.8866C9.85784 18.5926 9.9599 18.3038 10.0917 18.0232C10.1016 18.0022 10.1115 17.9812 10.1216 17.9596C10.4178 17.3518 10.9726 16.9105 11.5972 16.677C11.691 16.6481 11.7858 16.6245 11.8812 16.6015C11.9234 16.5912 11.9234 16.5912 11.9665 16.5806C12.3635 16.4843 12.7625 16.3962 13.1614 16.3078C13.2763 16.2823 13.3911 16.2567 13.506 16.231C13.5953 16.211 13.6845 16.1912 13.7738 16.1714C13.8163 16.1619 13.8587 16.1525 13.9011 16.143C13.9598 16.1299 14.0185 16.1169 14.0771 16.1039C14.1104 16.0965 14.1437 16.0891 14.178 16.0815C14.2593 16.0658 14.2593 16.0658 14.3425 16.0658C14.3425 15.7174 14.3425 15.369 14.3425 15.01C14.2968 14.9917 14.251 14.9733 14.2039 14.9545C13.992 14.8185 13.8041 14.6546 13.6215 14.4822C13.6031 14.4655 13.5846 14.4488 13.5656 14.4316C12.9736 13.8746 12.6259 13.0356 12.5678 12.2318C12.5631 12.0661 12.5625 11.9005 12.5621 11.7348C12.562 11.6991 12.562 11.6991 12.5619 11.6627C12.5615 11.5367 12.5612 11.4107 12.5611 11.2847C12.5609 11.1556 12.5603 11.0266 12.5595 10.8975C12.559 10.7973 12.5588 10.6971 12.5588 10.5969C12.5587 10.5493 12.5585 10.5018 12.5581 10.4543C12.5527 9.70377 12.7945 9.15463 13.3165 8.62007C13.3396 8.59607 13.3396 8.59607 13.3632 8.57159C13.9925 7.92683 14.9354 7.50864 15.8389 7.50313ZM13.8728 9.27469C13.6034 9.55618 13.423 9.85924 13.4247 10.2546C13.4248 10.2905 13.4249 10.3264 13.425 10.3634C13.4252 10.401 13.4254 10.4386 13.4257 10.4763C13.4258 10.5145 13.4259 10.5526 13.426 10.5908C13.4264 10.684 13.4268 10.7772 13.4274 10.8704C13.5831 10.7404 13.7245 10.6017 13.8642 10.4547C13.9983 10.317 14.1234 10.2004 14.3247 10.1903C14.4667 10.1972 14.5819 10.2479 14.7099 10.3061C14.9102 10.3919 15.1078 10.4583 15.32 10.5075C15.3437 10.5131 15.3675 10.5186 15.392 10.5243C16.1817 10.6995 16.9984 10.5758 17.7234 10.2259C17.8257 10.1865 17.9236 10.1842 18.0307 10.2037C18.2962 10.3338 18.5141 10.6017 18.7197 10.8124C18.7688 10.8737 18.7688 10.8737 18.8071 10.8704C18.8092 10.7608 18.8107 10.6511 18.8117 10.5415C18.8123 10.4862 18.8134 10.4309 18.8144 10.3756C18.818 9.90407 18.6586 9.59352 18.3352 9.25776C17.7536 8.67229 16.9786 8.35844 16.1566 8.34193C15.2844 8.34599 14.501 8.671 13.8728 9.27469ZM14.4257 11.1205C14.4145 11.1321 14.4034 11.1437 14.3919 11.1557C14.0953 11.4629 13.8266 11.7056 13.4274 11.8706C13.3944 12.517 13.6219 13.1557 14.0375 13.6487C14.0643 13.6816 14.0643 13.6816 14.0916 13.7152C14.5517 14.2572 15.2092 14.5834 15.9152 14.6428C16.6556 14.6887 17.3324 14.4466 17.8986 13.9683C18.4054 13.508 18.7377 12.8913 18.8071 12.204C18.8109 12.0927 18.8107 11.9819 18.8071 11.8706C18.7793 11.8584 18.7514 11.8463 18.7227 11.8337C18.4345 11.702 18.2233 11.5408 18.0029 11.315C17.9672 11.2791 17.9314 11.2432 17.8956 11.2074C17.8667 11.1784 17.8377 11.1495 17.8088 11.1205C17.7833 11.1287 17.7833 11.1287 17.7573 11.137C16.6201 11.4995 15.559 11.509 14.4257 11.1205ZM15.2022 15.3712C15.1182 16.0747 15.2593 16.5014 15.6602 17.0769C15.7609 17.2219 15.8509 17.3732 15.9422 17.5243C15.9911 17.6032 16.0402 17.6819 16.0895 17.7605C16.2006 17.7234 16.2127 17.6772 16.2703 17.5762C16.2796 17.5601 16.2889 17.544 16.2985 17.5274C16.3397 17.4561 16.3801 17.3844 16.4207 17.3127C16.4524 17.2565 16.4843 17.2003 16.5163 17.1443C16.527 17.1256 16.5376 17.1069 16.5486 17.0876C16.6139 16.9747 16.6839 16.8685 16.7616 16.7636C17.0879 16.3127 17.0769 15.9068 17.0324 15.3712C17.0038 15.3769 16.9752 15.3826 16.9458 15.3884C16.3559 15.5021 15.7914 15.4998 15.2022 15.3712ZM12.6405 20.1359C12.5518 20.2442 12.5302 20.3384 12.5322 20.4797C12.5496 20.6114 12.6219 20.7033 12.7133 20.7974C12.8314 20.87 12.9355 20.9099 13.0754 20.8914C13.2383 20.8469 13.3371 20.7642 13.4274 20.6221C13.473 20.485 13.4715 20.3647 13.4257 20.2296C13.3444 20.1089 13.2587 20.0088 13.1165 19.9635C12.9187 19.9324 12.7744 19.9855 12.6405 20.1359Z" fill="#F08559"/>
</svg>
