<svg width="2829" height="742" viewBox="0 0 2829 742" fill="none" xmlns="http://www.w3.org/2000/svg">
<path d="M118.486 344.015C95.9173 344.015 76.9533 338.513 61.5939 327.507C46.2346 316.502 35.7339 300.937 30.0917 280.813L35.2637 279.87V339.77H0V0.176758H37.6146V155.352L32.4426 153.937C38.3983 135.385 49.2125 120.921 64.8852 110.545C80.8714 99.8538 99.8355 94.5083 121.777 94.5083C143.092 94.5083 161.586 99.6965 177.259 110.073C193.245 120.449 205.627 134.914 214.403 153.466C223.18 172.017 227.568 193.714 227.568 218.554C227.568 243.709 223.023 265.72 213.933 284.586C204.843 303.453 192.148 318.074 175.848 328.451C159.549 338.827 140.428 344.015 118.486 344.015ZM112.844 310.999C136.666 310.999 155.317 302.824 168.796 286.473C182.274 269.808 189.014 247.168 189.014 218.554C189.014 190.255 182.274 168.087 168.796 152.051C155.317 135.7 136.666 127.524 112.844 127.524C89.0213 127.524 70.214 135.857 56.4219 152.522C42.6299 168.873 35.7339 191.355 35.7339 219.969C35.7339 247.954 42.6299 270.122 56.4219 286.473C70.214 302.824 89.0213 310.999 112.844 310.999Z" fill="white"/>
<path d="M284.222 339.77V99.2249H321.836V339.77H284.222ZM281.401 44.5126V0.176758H324.658V44.5126H281.401Z" fill="white"/>
<path d="M478.518 344.487C449.053 344.487 425.544 337.727 407.99 324.206C390.437 310.37 380.406 290.875 377.898 265.72H414.102C416.297 281.128 423.036 292.919 434.32 301.094C445.605 309.27 460.651 313.358 479.458 313.358C496.071 313.358 509.079 310.213 518.483 303.924C527.887 297.636 532.589 288.674 532.589 277.04C532.589 268.864 529.924 261.79 524.595 255.815C519.267 249.527 508.609 244.338 492.623 240.251L454.068 230.346C432.126 224.686 415.67 216.039 404.699 204.405C393.728 192.456 388.242 178.306 388.242 161.955C388.242 141.202 395.922 124.852 411.281 112.903C426.641 100.64 447.485 94.5083 473.816 94.5083C499.832 94.5083 520.991 100.797 537.29 113.375C553.59 125.952 562.837 143.404 565.031 165.729H528.827C526.633 152.837 520.677 142.932 510.96 136.014C501.243 129.097 488.391 125.638 472.405 125.638C457.046 125.638 445.135 128.625 436.671 134.599C428.208 140.259 423.976 148.435 423.976 159.125C423.976 167.301 426.954 174.376 432.91 180.35C439.179 186.324 449.523 191.355 463.942 195.443L501.556 205.82C523.812 211.794 540.582 220.913 551.866 233.176C563.15 245.439 568.793 260.217 568.793 277.512C568.793 298.579 560.8 315.087 544.813 327.036C528.827 338.67 506.729 344.487 478.518 344.487Z" fill="white"/>
<path d="M619.411 339.77V0.176758H657.025V339.77H619.411ZM791.027 339.77V182.237C791.027 163.999 786.482 150.321 777.392 141.202C768.302 132.084 754.823 127.524 736.956 127.524C721.284 127.524 707.335 130.983 695.11 137.901C683.199 144.818 673.795 154.409 666.899 166.672C660.317 178.935 657.025 193.242 657.025 209.593L650.913 152.522C659.063 134.599 671.444 120.449 688.057 110.073C704.984 99.6965 724.105 94.5083 745.42 94.5083C770.496 94.5083 790.557 101.74 805.603 116.205C820.962 130.354 828.642 149.063 828.642 172.332V339.77H791.027Z" fill="white"/>
<path d="M999.146 344.487C976.264 344.487 956.046 339.142 938.492 328.451C920.939 317.445 907.147 302.509 897.116 283.643C887.086 264.777 882.07 243.081 882.07 218.554C882.07 194.028 886.929 172.489 896.646 153.937C906.677 135.071 920.625 120.449 938.492 110.073C956.359 99.6965 976.891 94.5083 1000.09 94.5083C1022.34 94.5083 1041.62 99.3821 1057.92 109.13C1074.53 118.877 1087.23 132.555 1096 150.164C1105.09 167.772 1109.64 188.525 1109.64 212.423C1109.64 215.567 1109.48 218.554 1109.17 221.384C1109.17 224.214 1108.86 227.359 1108.23 230.817H910.281V199.216H1085.19L1072.96 216.668C1072.96 187.739 1066.54 165.571 1053.69 150.164C1041.15 134.442 1023.28 126.581 1000.09 126.581C976.264 126.581 956.986 134.914 942.254 151.579C927.835 167.93 920.625 190.098 920.625 218.083C920.625 246.697 927.835 269.651 942.254 286.945C956.986 303.924 976.577 312.414 1001.03 312.414C1016.39 312.414 1029.86 309.113 1041.46 302.509C1053.06 295.592 1061.52 285.844 1066.85 273.267H1102.59C1094.75 295.277 1081.58 312.729 1063.09 325.621C1044.91 338.198 1023.6 344.487 999.146 344.487Z" fill="white"/>
<path d="M1247.62 344.487C1218.15 344.487 1194.64 337.727 1177.09 324.206C1159.53 310.37 1149.5 290.875 1147 265.72H1183.2C1185.39 281.128 1192.13 292.919 1203.42 301.094C1214.7 309.27 1229.75 313.358 1248.56 313.358C1265.17 313.358 1278.18 310.213 1287.58 303.924C1296.98 297.636 1301.69 288.674 1301.69 277.04C1301.69 268.864 1299.02 261.79 1293.69 255.815C1288.36 249.527 1277.71 244.338 1261.72 240.251L1223.17 230.346C1201.22 224.686 1184.77 216.039 1173.8 204.405C1162.83 192.456 1157.34 178.306 1157.34 161.955C1157.34 141.202 1165.02 124.852 1180.38 112.903C1195.74 100.64 1216.58 94.5083 1242.91 94.5083C1268.93 94.5083 1290.09 100.797 1306.39 113.375C1322.69 125.952 1331.93 143.404 1334.13 165.729H1297.92C1295.73 152.837 1289.78 142.932 1280.06 136.014C1270.34 129.097 1257.49 125.638 1241.5 125.638C1226.14 125.638 1214.23 128.625 1205.77 134.599C1197.31 140.259 1193.07 148.435 1193.07 159.125C1193.07 167.301 1196.05 174.376 1202.01 180.35C1208.28 186.324 1218.62 191.355 1233.04 195.443L1270.65 205.82C1292.91 211.794 1309.68 220.913 1320.96 233.176C1332.25 245.439 1337.89 260.217 1337.89 277.512C1337.89 298.579 1329.9 315.087 1313.91 327.036C1297.92 338.67 1275.83 344.487 1247.62 344.487Z" fill="white"/>
<path d="M1388.51 339.77V0.176758H1426.12V339.77H1388.51ZM1560.13 339.77V182.237C1560.13 163.999 1555.58 150.321 1546.49 141.202C1537.4 132.084 1523.92 127.524 1506.05 127.524C1490.38 127.524 1476.43 130.983 1464.21 137.901C1452.3 144.818 1442.89 154.409 1436 166.672C1429.41 178.935 1426.12 193.242 1426.12 209.593L1420.01 152.522C1428.16 134.599 1440.54 120.449 1457.16 110.073C1474.08 99.6965 1493.2 94.5083 1514.52 94.5083C1539.59 94.5083 1559.66 101.74 1574.7 116.205C1590.06 130.354 1597.74 149.063 1597.74 172.332V339.77H1560.13Z" fill="white"/>
<path d="M1769.65 344.487C1746.15 344.487 1725.46 338.984 1707.59 327.979C1689.72 316.974 1675.77 302.038 1665.74 283.171C1656.03 263.991 1651.17 242.452 1651.17 218.554C1651.17 194.343 1656.18 172.961 1666.21 154.409C1676.24 135.857 1690.04 121.236 1707.59 110.545C1725.46 99.8538 1746.15 94.5083 1769.65 94.5083C1793.48 94.5083 1814.16 99.8538 1831.72 110.545C1849.59 121.236 1863.38 135.857 1873.09 154.409C1883.12 172.961 1888.14 194.343 1888.14 218.554C1888.14 242.452 1883.12 263.991 1873.09 283.171C1863.38 302.038 1849.59 316.974 1831.72 327.979C1814.16 338.984 1793.48 344.487 1769.65 344.487ZM1769.65 312.414C1785.95 312.414 1800.06 308.484 1811.97 300.623C1823.88 292.447 1833.13 281.285 1839.71 267.135C1846.29 252.985 1849.59 236.635 1849.59 218.083C1849.59 190.412 1842.22 168.244 1827.49 151.579C1813.07 134.914 1793.79 126.581 1769.65 126.581C1745.83 126.581 1726.55 134.914 1711.82 151.579C1697.09 168.244 1689.72 190.412 1689.72 218.083C1689.72 236.635 1693.01 252.985 1699.6 267.135C1706.18 281.285 1715.43 292.447 1727.34 300.623C1739.56 308.484 1753.67 312.414 1769.65 312.414Z" fill="#F08559"/>
<path d="M2040 441.177C2011.48 441.177 1987.65 434.416 1968.53 420.895C1949.73 407.689 1938.29 390.081 1934.21 368.07H1969.94C1973.39 380.647 1981.07 390.552 1992.98 397.784C2005.21 405.331 2021.67 409.104 2042.35 409.104C2066.8 409.104 2085.3 402.344 2097.83 388.823C2110.37 375.616 2116.64 356.121 2116.64 330.337V278.927L2121.34 279.87C2116.01 298.107 2105.36 312.729 2089.37 323.734C2073.38 334.425 2054.42 339.77 2032.48 339.77C2011.48 339.77 1992.98 334.739 1977 324.677C1961.01 314.301 1948.63 299.994 1939.85 281.756C1931.08 263.519 1926.69 242.294 1926.69 218.083C1926.69 193.556 1931.23 172.017 1940.32 153.466C1949.41 134.914 1962.11 120.607 1978.41 110.545C1995.02 100.168 2014.3 94.98 2036.24 94.98C2058.81 94.98 2077.62 100.483 2092.66 111.488C2108.02 122.493 2118.21 138.215 2123.22 158.654L2118.99 159.125V99.2249H2154.26V330.337C2154.26 364.611 2144.07 391.653 2123.69 411.462C2103.32 431.272 2075.42 441.177 2040 441.177ZM2041.88 307.226C2065.39 307.226 2084.04 299.051 2097.83 282.7C2111.63 266.349 2118.52 244.181 2118.52 216.196C2118.52 188.84 2111.63 167.301 2097.83 151.579C2084.04 135.543 2065.39 127.524 2041.88 127.524C2018.06 127.524 1999.25 135.543 1985.46 151.579C1971.98 167.615 1965.24 189.626 1965.24 217.611C1965.24 244.967 1972.14 266.821 1985.93 283.171C1999.72 299.208 2018.37 307.226 2041.88 307.226Z" fill="white"/>
<path d="M2325.14 441.177C2296.62 441.177 2272.8 434.416 2253.67 420.895C2234.87 407.689 2223.43 390.081 2219.35 368.07H2255.08C2258.53 380.647 2266.21 390.552 2278.12 397.784C2290.35 405.331 2306.81 409.104 2327.49 409.104C2351.94 409.104 2370.44 402.344 2382.97 388.823C2395.51 375.616 2401.78 356.121 2401.78 330.337V278.927L2406.48 279.87C2401.15 298.107 2390.5 312.729 2374.51 323.734C2358.52 334.425 2339.56 339.77 2317.62 339.77C2296.62 339.77 2278.12 334.739 2262.14 324.677C2246.15 314.301 2233.77 299.994 2224.99 281.756C2216.22 263.519 2211.83 242.294 2211.83 218.083C2211.83 193.556 2216.37 172.017 2225.46 153.466C2234.55 134.914 2247.25 120.607 2263.55 110.545C2280.16 100.168 2299.44 94.98 2321.38 94.98C2343.95 94.98 2362.76 100.483 2377.8 111.488C2393.16 122.493 2403.35 138.215 2408.36 158.654L2404.13 159.125V99.2249H2449.5V201.177C2417 263.177 2428.5 311.177 2428.5 311.177C2439.9 347.177 2441 379.297 2408.83 411.462C2388.46 431.272 2360.56 441.177 2325.14 441.177ZM2327.02 307.226C2350.53 307.226 2369.18 299.051 2382.97 282.7C2396.77 266.349 2403.66 244.181 2403.66 216.196C2403.66 188.84 2396.77 167.301 2382.97 151.579C2369.18 135.543 2350.53 127.524 2327.02 127.524C2303.2 127.524 2284.39 135.543 2270.6 151.579C2257.12 167.615 2250.38 189.626 2250.38 217.611C2250.38 244.967 2257.28 266.821 2271.07 283.171C2284.86 299.208 2303.51 307.226 2327.02 307.226Z" fill="white"/>
<path fill-rule="evenodd" clip-rule="evenodd" d="M1764.75 355.747C1763.86 349.761 1763.01 344.086 1762.18 338.79L1791.82 334.143C1792.69 339.715 1793.57 345.56 1794.48 351.626C1801.2 396.38 1809.72 453.111 1831.71 500.4C1844.06 526.956 1860.23 549.491 1881.82 564.931C1903.17 580.196 1930.84 589.277 1967.77 587.355C2088.63 581.066 2191.41 546.296 2281 515.99C2308.31 506.753 2334.39 497.93 2359.38 490.455C2383.3 483.3 2406.88 477.677 2429.6 474.02C2457.4 434.923 2493.47 402.639 2522.02 381.415L2539.92 405.491C2518.66 421.297 2493.31 443.393 2471.08 469.571C2507.65 467.812 2541.56 472.516 2569.58 486.635C2607.42 505.705 2632.24 540.807 2639.07 593.522C2647.93 661.892 2608.93 715.144 2557.7 734.009C2505.76 753.136 2442.83 736.454 2406.15 670.202C2374.54 613.094 2383.82 556.611 2408.44 508.617C2395.24 511.536 2381.72 515.086 2367.98 519.197C2344.58 526.193 2319.58 534.659 2293 543.661C2202.97 574.15 2094.77 610.786 1969.33 617.314C1926.22 619.558 1891.72 608.888 1864.37 589.334C1837.27 569.955 1818.25 542.602 1804.51 513.05C1780.53 461.494 1771.37 400.074 1764.75 355.747ZM2446.99 501.815C2416.41 549.192 2403.04 602.639 2432.4 655.673C2461.97 709.097 2509.42 719.818 2547.34 705.857C2585.96 691.633 2616.3 651.303 2609.32 597.375C2603.59 553.156 2583.86 527.429 2556.08 513.425C2528.58 499.568 2491.18 496.181 2446.99 501.815Z" fill="#F08559"/>
<path fill-rule="evenodd" clip-rule="evenodd" d="M2658.3 421.117C2621.46 439.19 2576.82 440.395 2525.18 415.075C2473.53 389.745 2448.23 354.187 2441.78 314.376C2435.52 275.696 2447.52 235.672 2464.42 201.21L2491.35 214.419C2475.65 246.438 2466.57 279.76 2471.4 309.582C2476.04 338.272 2493.99 366.369 2538.39 388.139C2582.8 409.919 2617.64 407.652 2645.08 394.184C2673.34 380.319 2695.97 353.492 2712.82 322.35L2739.2 336.628C2720.79 370.659 2694.32 403.441 2658.3 421.117Z" fill="#F08559"/>
<path d="M2641.2 45.6236C2640.33 43.4261 2646.49 36.7464 2649.35 33.6551C2651.68 29.1904 2655.24 20.7053 2656.53 17.6197C2659.23 11.191 2664.6 30.9046 2676.12 33.8338C2687.63 36.7631 2697.53 35.5719 2697.21 47.5116C2696.89 59.4514 2684.36 69.0696 2678.79 73.271C2673.23 77.4724 2672.84 66.1404 2663.1 57.373C2653.37 48.6055 2643.36 51.1174 2641.2 45.6236Z" fill="#F08559"/>
<path fill-rule="evenodd" clip-rule="evenodd" d="M2577.47 20.3955C2560.99 27.3214 2548.37 44.2882 2535.49 65.0579C2525.83 80.6413 2515.15 109.153 2505.65 139.196C2496.23 168.991 2488.21 199.453 2483.72 218.36L2469.12 214.894C2473.69 195.692 2481.8 164.872 2491.35 134.672C2500.82 104.721 2511.97 74.5265 2522.74 57.1544C2535.4 36.7297 2550.21 15.5778 2571.65 6.56718C2594.01 -2.82887 2621.02 1.78544 2655.78 26.2716L2647.14 38.5344C2614.42 15.4863 2593.03 13.855 2577.47 20.3955Z" fill="#F08559"/>
<path fill-rule="evenodd" clip-rule="evenodd" d="M2811.94 134.389C2816.84 151.58 2811.49 172.039 2803.33 195.074C2797.21 212.358 2781.64 238.516 2764.14 264.718C2746.78 290.704 2728.02 316.01 2716.07 331.337L2727.91 340.559C2740.04 324.993 2759.02 299.389 2776.61 273.05C2794.06 246.929 2810.65 219.348 2817.47 200.081C2825.49 177.428 2832.74 152.642 2826.36 130.278C2819.72 106.956 2799.23 88.7648 2758.38 76.9515L2754.22 91.3609C2792.66 102.48 2807.31 118.155 2811.94 134.389Z" fill="#F08559"/>
<path d="M2756.7 101.373C2758.94 100.61 2760.04 91.5912 2760.54 87.4075C2762.44 82.7471 2766.6 74.5381 2768.11 71.5528C2771.26 65.3332 2752.77 74.0104 2743.08 67.1306C2733.39 60.2509 2727.89 51.941 2718.99 59.9138C2710.1 67.8866 2710.89 83.6679 2711.29 90.6297C2711.7 97.5916 2720.58 90.5476 2733.57 92.2902C2746.55 94.0328 2751.12 103.28 2756.7 101.373Z" fill="#F08559"/>
<path d="M1812 220.177C1812 245.582 1791.41 266.177 1766 266.177C1740.59 266.177 1720 245.582 1720 220.177C1720 194.772 1740.59 174.177 1766 174.177C1791.41 174.177 1812 194.772 1812 220.177Z" fill="#F08559"/>
</svg>
