<svg width="32" height="30" viewBox="0 0 32 30" fill="none" xmlns="http://www.w3.org/2000/svg">
<rect x="0.5" y="0.5" width="30.5" height="29" rx="14.5" stroke="#F08559"/>
<path d="M17.8296 6.1677C17.8544 6.17425 17.8792 6.1808 17.9048 6.18755C18.8489 6.44524 19.645 6.93206 20.3587 7.59158C20.3908 7.62026 20.3908 7.62026 20.4236 7.64953C21.3179 8.48534 21.9414 9.8396 21.9947 11.0588C22.0073 12.246 22.0073 12.246 21.8895 12.7242C21.8796 12.7654 21.8796 12.7654 21.8695 12.8075C21.6794 13.5766 21.3288 14.2527 20.884 14.9046C20.775 15.065 20.6709 15.2284 20.5667 15.3919C20.547 15.4228 20.5273 15.4537 20.5069 15.4856C20.4665 15.549 20.4262 15.6124 20.3858 15.6758C20.2882 15.829 20.1903 15.9819 20.0925 16.1349C20.0543 16.1946 20.016 16.2544 19.9778 16.3142C19.7831 16.6186 19.5884 16.9231 19.3936 17.2276C19.4218 17.2312 19.4499 17.2348 19.4789 17.2385C19.768 17.2772 20.0497 17.3306 20.3337 17.3973C20.3551 17.4023 20.3764 17.4073 20.3983 17.4125C21.5376 17.6809 23.088 18.0834 23.7531 19.1482C23.9863 19.564 24.0463 19.9511 23.9666 20.4215C23.7693 21.0922 23.1687 21.518 22.5858 21.8453C21.5019 22.4276 20.2556 22.6813 19.0463 22.8507C19.0232 22.854 19.0001 22.8573 18.9763 22.8607C18.1832 22.9721 17.3887 23.002 16.5886 22.9999C16.516 22.9997 16.4434 22.9996 16.3709 22.9996C15.6548 22.9985 14.9466 22.9806 14.2355 22.89C14.1752 22.8829 14.1752 22.8829 14.1136 22.8755C12.7088 22.7068 11.0707 22.397 9.90936 21.5324C9.86233 21.4977 9.86233 21.4977 9.81434 21.4624C9.43161 21.1667 9.11492 20.79 9.01085 20.3072C8.95966 19.7247 9.08622 19.3185 9.46219 18.8688C10.4434 17.8075 12.1317 17.4561 13.5034 17.2276C13.5363 17.2276 13.5693 17.2276 13.6032 17.2276C13.3553 16.8363 13.1065 16.4456 12.8567 16.0555C12.7785 15.9333 12.7004 15.811 12.6224 15.6886C12.584 15.6283 12.5456 15.5681 12.5071 15.5078C12.4881 15.4779 12.4691 15.448 12.4495 15.4172C12.349 15.2599 12.2473 15.1036 12.1435 14.9485C11.2605 13.6265 10.7576 12.1358 11.0637 10.5345C11.0866 10.4248 11.1126 10.3161 11.1407 10.2075C11.1469 10.1824 11.1531 10.1573 11.1595 10.1314C11.2492 9.77659 11.38 9.44382 11.54 9.1148C11.5502 9.09371 11.5605 9.07263 11.5711 9.0509C12.2346 7.70857 13.4286 6.7473 14.8357 6.26065C14.9451 6.22518 15.0558 6.19577 15.1673 6.1677C15.2043 6.15803 15.2043 6.15803 15.242 6.14816C16.0596 5.9429 17.0156 5.95231 17.8296 6.1677ZM15.4335 7.1611C15.393 7.17231 15.393 7.17231 15.3517 7.18375C14.1445 7.52973 13.1653 8.30559 12.5499 9.39818C12.3073 9.84424 12.1657 10.3067 12.0724 10.8036C12.0666 10.8344 12.0607 10.8652 12.0547 10.897C11.9762 11.429 11.9934 12.0738 12.139 12.5917C12.15 12.6315 12.15 12.6315 12.1612 12.672C12.3294 13.2595 12.5992 13.7774 12.946 14.279C13.0554 14.4376 13.1586 14.6002 13.2621 14.7627C13.2819 14.7937 13.3017 14.8248 13.322 14.8567C13.3625 14.9202 13.4029 14.9836 13.4433 15.0471C13.5394 15.198 13.6358 15.3488 13.7322 15.4995C13.7607 15.5442 13.7607 15.5442 13.7899 15.5897C13.938 15.8214 14.0867 16.0527 14.2355 16.2839C14.4612 16.6345 14.686 16.9855 14.9105 17.3368C15.0071 17.4881 15.1039 17.6393 15.2006 17.7906C15.2394 17.8513 15.2782 17.912 15.3171 17.9727C15.3363 18.0027 15.3555 18.0328 15.3753 18.0637C15.4335 18.1548 15.4918 18.2459 15.55 18.3369C15.5693 18.367 15.5885 18.3971 15.6083 18.4281C15.6469 18.4884 15.6854 18.5486 15.7239 18.6089C15.8255 18.7677 15.9271 18.9265 16.0288 19.0852C16.0499 19.1183 16.0711 19.1513 16.0929 19.1854C16.1335 19.2487 16.174 19.312 16.2146 19.3753C16.242 19.4181 16.242 19.4181 16.27 19.4619C16.2861 19.4869 16.3021 19.5119 16.3186 19.5377C16.353 19.5922 16.3855 19.6478 16.417 19.7039C16.4329 19.7282 16.4488 19.7524 16.4652 19.7774C16.4871 19.7774 16.5091 19.7774 16.5317 19.7774C16.5801 19.7149 16.5801 19.7149 16.6287 19.6326C16.6482 19.601 16.6678 19.5695 16.688 19.5369C16.7197 19.4849 16.7197 19.4849 16.7522 19.4317C16.7977 19.3582 16.8432 19.2848 16.8888 19.2113C16.9064 19.1829 16.9064 19.1829 16.9244 19.1539C17.0457 18.9581 17.1701 18.7643 17.295 18.5708C17.317 18.5366 17.339 18.5025 17.3617 18.4673C17.4064 18.398 17.4512 18.3286 17.496 18.2592C17.6087 18.0845 17.7212 17.9096 17.8337 17.7347C17.8558 17.7003 17.8779 17.666 17.9006 17.6306C18.1216 17.287 18.3417 16.9428 18.5617 16.5985C18.8275 16.1823 19.094 15.7665 19.3613 15.3512C19.5285 15.0913 19.6954 14.8311 19.8612 14.5703C19.9479 14.4343 20.0353 14.2989 20.1258 14.1653C20.669 13.3603 20.9715 12.5058 20.9702 11.53C20.9702 11.5077 20.9701 11.4853 20.9701 11.4623C20.9658 10.2978 20.4985 9.28099 19.7264 8.41942C19.6948 8.38375 19.6948 8.38375 19.6626 8.34737C18.9673 7.60965 17.8869 7.11275 16.8783 7.05492C16.7544 7.05174 16.6307 7.05085 16.5068 7.05141C16.4849 7.0515 16.463 7.05158 16.4405 7.05166C16.0944 7.05367 15.7679 7.0684 15.4335 7.1611ZM10.1868 19.6249C10.0661 19.7692 10.0169 19.9084 10.0251 20.0945C10.0912 20.3991 10.3673 20.6058 10.616 20.7672C11.7323 21.4651 13.1004 21.7206 14.3915 21.8718C14.415 21.8745 14.4385 21.8773 14.4627 21.8801C14.944 21.9358 15.4236 21.9678 15.9084 21.9696C15.9519 21.9698 15.9954 21.97 16.0403 21.9703C16.1798 21.9709 16.3194 21.9711 16.4589 21.9711C16.4827 21.9711 16.5065 21.9712 16.531 21.9712C17.2568 21.9714 17.9744 21.961 18.6948 21.8635C18.7399 21.8576 18.785 21.8517 18.8301 21.8458C19.4256 21.7665 20.0114 21.6553 20.5916 21.4993C20.6213 21.4914 20.651 21.4835 20.6815 21.4754C21.424 21.2748 22.2602 20.99 22.788 20.4065C22.8035 20.3896 22.819 20.3727 22.8349 20.3553C22.9437 20.2239 22.9794 20.1199 22.968 19.9493C22.9152 19.6683 22.6746 19.4672 22.4541 19.3063C21.525 18.6749 19.8961 18.066 18.7613 18.1879C18.6944 18.2476 18.6944 18.2476 18.646 18.3323C18.6167 18.3778 18.6167 18.3778 18.5868 18.4243C18.5675 18.4556 18.5483 18.4868 18.5284 18.519C18.4923 18.5744 18.4563 18.6298 18.4201 18.6851C18.3833 18.7429 18.3466 18.8006 18.31 18.8585C18.2691 18.9228 18.2281 18.9871 18.1872 19.0515C18.1665 19.084 18.1458 19.1165 18.1245 19.1501C18.0265 19.3042 17.928 19.458 17.8296 19.6118C17.7106 19.7977 17.5917 19.9837 17.4731 20.1698C17.3594 20.3483 17.2452 20.5265 17.1307 20.7045C17.1089 20.7385 17.1089 20.7385 17.0867 20.7732C17.0504 20.8298 17.0136 20.8862 16.9768 20.9425C16.9484 20.9863 16.9484 20.9863 16.9194 21.0309C16.836 21.1387 16.7609 21.1914 16.6315 21.2344C16.4393 21.2469 16.3353 21.2357 16.1657 21.135C15.967 20.9255 15.8246 20.6532 15.6755 20.4075C15.572 20.2369 15.4659 20.0685 15.3566 19.9015C15.2157 19.6865 15.0767 19.4705 14.9385 19.2538C14.7795 19.0046 14.6195 18.7562 14.4581 18.5087C14.4395 18.4802 14.421 18.4517 14.4019 18.4224C14.3849 18.3964 14.3678 18.3703 14.3503 18.3435C14.3278 18.3091 14.3278 18.3091 14.3049 18.274C14.272 18.2221 14.272 18.2221 14.2355 18.1879C12.9802 18.1343 11.0602 18.6986 10.1868 19.6249Z" fill="#F08559"/>
<path d="M17.9873 9.48885C18.1094 9.58822 18.2193 9.69733 18.3287 9.81018C18.3533 9.83357 18.3778 9.85697 18.4031 9.88107C18.8338 10.3163 19.005 10.9373 19.0109 11.5321C19.0044 12.1917 18.7939 12.7975 18.3189 13.2669C18.2892 13.2954 18.2595 13.324 18.2289 13.3533C18.2054 13.3777 18.1819 13.4022 18.1577 13.4273C17.7203 13.8559 17.0962 14.0263 16.4984 14.0322C15.8356 14.0256 15.2267 13.8162 14.755 13.3435C14.7263 13.314 14.6977 13.2844 14.6681 13.254C14.6436 13.2306 14.6191 13.2072 14.5938 13.1831C14.1631 12.7479 13.9919 12.1269 13.9859 11.5321C13.9925 10.8725 14.203 10.2666 14.678 9.79725C14.7077 9.76873 14.7374 9.74022 14.768 9.71084C14.7915 9.68643 14.815 9.66201 14.8392 9.63685C15.6444 8.84788 17.101 8.83228 17.9873 9.48885ZM15.4668 10.4725C15.4456 10.4922 15.4244 10.5119 15.4026 10.5322C15.1202 10.8229 15.023 11.199 15.0214 11.5922C15.0284 11.9734 15.1728 12.2818 15.4335 12.5586C15.4633 12.5902 15.4633 12.5902 15.4936 12.6225C15.7857 12.9036 16.1637 13.0002 16.5588 13.0018C16.9419 12.9948 17.2519 12.8512 17.5301 12.5917C17.5618 12.5621 17.5618 12.5621 17.5943 12.532C17.8767 12.2413 17.9739 11.8651 17.9755 11.472C17.9684 11.0908 17.8241 10.7824 17.5633 10.5056C17.5336 10.4739 17.5336 10.4739 17.5033 10.4417C17.2111 10.1606 16.8331 10.064 16.4381 10.0623C16.0549 10.0694 15.745 10.213 15.4668 10.4725Z" fill="#F08559"/>
</svg>
