<svg width="32" height="30" viewBox="0 0 32 30" fill="none" xmlns="http://www.w3.org/2000/svg">
<rect x="0.5" y="0.5" width="30.5" height="29" rx="14.5" stroke="#F08559"/>
<path d="M13.4484 8.00757C13.4859 8.00746 13.5235 8.00733 13.561 8.00717C13.664 8.00681 13.7669 8.00682 13.8698 8.00689C13.9809 8.0069 14.0921 8.00658 14.2032 8.0063C14.4208 8.00581 14.6384 8.00565 14.856 8.00562C15.0329 8.00559 15.2098 8.00547 15.3867 8.00528C15.8886 8.00477 16.3904 8.0045 16.8922 8.00454C16.9328 8.00454 16.9328 8.00454 16.9742 8.00455C17.0148 8.00455 17.0148 8.00455 17.0562 8.00455C17.495 8.00458 17.9337 8.00402 18.3724 8.00319C18.8231 8.00235 19.2739 8.00194 19.7246 8.00199C19.9775 8.00201 20.2305 8.00185 20.4834 8.00122C20.6988 8.00069 20.9142 8.00056 21.1296 8.00096C21.2394 8.00115 21.3492 8.00115 21.459 8.00064C21.5597 8.00018 21.6604 8.00027 21.7611 8.00078C21.8145 8.00091 21.8678 8.00047 21.9212 8C22.243 8.00269 22.4774 8.08336 22.7099 8.32531C22.9451 8.60106 22.9975 8.83955 22.9963 9.20514C22.9964 9.23915 22.9965 9.27315 22.9966 9.30819C22.9968 9.40219 22.9968 9.49619 22.9967 9.59019C22.9966 9.69171 22.9969 9.79323 22.9971 9.89475C22.9974 10.0934 22.9975 10.2921 22.9974 10.4908C22.9974 10.6522 22.9974 10.8137 22.9975 10.9751C22.9976 10.9981 22.9976 11.0211 22.9976 11.0447C22.9976 11.0914 22.9977 11.1381 22.9977 11.1848C22.998 11.6224 22.9979 12.06 22.9978 12.4975C22.9976 12.8981 22.9979 13.2987 22.9984 13.6992C22.999 14.1105 22.9992 14.5218 22.9991 14.933C22.999 15.1639 22.9991 15.3949 22.9995 15.6258C22.9998 15.8222 22.9999 16.0187 22.9995 16.2152C22.9994 16.3154 22.9993 16.4157 22.9997 16.516C23 16.6245 22.9997 16.7331 22.9994 16.8416C22.9996 16.8735 22.9998 16.9054 23 16.9383C22.9998 16.9672 22.9996 16.9962 22.9994 17.026C22.9994 17.0511 22.9994 17.0762 22.9994 17.102C22.9869 17.1803 22.9647 17.2055 22.9073 17.2539C22.8188 17.2925 22.7515 17.2867 22.6616 17.2539C22.555 17.1582 22.4677 17.0484 22.3783 16.9343C22.2988 16.8341 22.2155 16.7376 22.1329 16.6402C22.0288 16.5169 21.9259 16.3929 21.8267 16.265C21.398 15.7154 21.398 15.7154 20.7911 15.4711C20.4321 15.4389 20.072 15.4565 19.7139 15.4942C19.714 15.519 19.7141 15.5438 19.7142 15.5693C19.7166 16.1735 19.7184 16.7777 19.7195 17.3818C19.7201 17.674 19.7208 17.9662 19.7221 18.2583C19.7232 18.5131 19.7239 18.7678 19.7241 19.0226C19.7243 19.1574 19.7246 19.2922 19.7254 19.427C19.7261 19.5541 19.7264 19.6811 19.7262 19.8082C19.7262 19.8547 19.7264 19.9011 19.7269 19.9476C19.7302 20.337 19.6836 20.6267 19.4255 20.9132C19.1672 21.1675 18.9501 21.2242 18.6076 21.2098C18.576 21.2087 18.5445 21.2077 18.5119 21.2066C18.4246 21.2037 18.3373 21.2005 18.2499 21.1972C18.096 21.1915 17.9419 21.1868 17.7879 21.1819C17.7469 21.1806 17.7059 21.1793 17.6649 21.178C17.341 21.1676 17.0171 21.1598 16.6932 21.1539C16.6601 21.1533 16.6601 21.1533 16.6264 21.1526C16.3985 21.1485 16.1705 21.1446 15.9426 21.141C15.8255 21.1391 15.7084 21.1372 15.5912 21.1352C15.5679 21.1348 15.5446 21.1344 15.5206 21.134C15.1929 21.1282 14.8654 21.1184 14.5378 21.1055C13.974 21.0833 13.4106 21.0689 12.8463 21.0693C12.8246 21.0693 12.8029 21.0692 12.7805 21.0692C11.3233 21.0697 11.3233 21.0697 10.1105 21.8701C9.88476 22.1258 9.67873 22.4086 9.51141 22.7122C9.37303 22.9607 9.37303 22.9607 9.27601 22.999C9.18519 23.0029 9.12553 22.9975 9.05272 22.9363C9.0027 22.8692 9.00419 22.8309 9.00409 22.7454C9.00386 22.7166 9.00363 22.6877 9.0034 22.6579C9.00356 22.6261 9.00372 22.5943 9.00389 22.5615C9.00375 22.5277 9.0036 22.494 9.00345 22.4592C9.00312 22.3654 9.00317 22.2716 9.00337 22.1778C9.0035 22.0767 9.00316 21.9756 9.00288 21.8744C9.00241 21.6762 9.00239 21.478 9.00253 21.2797C9.00264 21.1185 9.0026 20.9573 9.00245 20.7961C9.00243 20.7732 9.00241 20.7502 9.00239 20.7266C9.00235 20.68 9.00231 20.6334 9.00227 20.5869C9.00189 20.1496 9.00204 19.7124 9.00235 19.2751C9.00262 18.8755 9.00227 18.4758 9.00162 18.0761C9.00095 17.6657 9.00069 17.2552 9.00087 16.8448C9.00097 16.6144 9.00091 16.384 9.00043 16.1536C9.00003 15.9573 9.00001 15.761 9.00048 15.5647C9.00072 15.4646 9.00078 15.3646 9.00036 15.2645C9 15.1558 9.00031 15.0471 9.00079 14.9383C9.00053 14.907 9.00027 14.8757 9 14.8435C9.00297 14.5159 9.09086 14.2698 9.30288 14.0345C9.57717 13.7644 9.81033 13.7257 10.1731 13.7266C10.2106 13.7265 10.2482 13.7264 10.2857 13.7262C10.3886 13.7259 10.4916 13.7259 10.5945 13.726C10.7056 13.726 10.8167 13.7256 10.9279 13.7254C11.1455 13.7249 11.3631 13.7247 11.5807 13.7247C11.7576 13.7247 11.9345 13.7245 12.1114 13.7244C12.6132 13.7238 13.1151 13.7236 13.6169 13.7236C13.6439 13.7236 13.671 13.7236 13.6988 13.7236C13.7259 13.7236 13.753 13.7236 13.7809 13.7236C14.2196 13.7236 14.6584 13.7231 15.0971 13.7223C15.5478 13.7214 15.9985 13.721 16.4493 13.7211C16.7022 13.7211 16.9552 13.7209 17.2081 13.7203C17.4235 13.7198 17.6389 13.7196 17.8543 13.72C17.9641 13.7202 18.0739 13.7202 18.1837 13.7197C18.2844 13.7192 18.3851 13.7193 18.4858 13.7198C18.5391 13.72 18.5925 13.7195 18.6459 13.7191C18.9677 13.7218 19.2021 13.8024 19.4346 14.0444C19.6381 14.2829 19.7244 14.5088 19.7173 14.8325C19.717 14.8539 19.7168 14.8754 19.7165 14.8975C19.7159 14.9498 19.7149 15.002 19.7139 15.0543C19.7388 15.0497 19.7388 15.0497 19.7643 15.045C20.9611 14.8356 20.9611 14.8356 21.3672 15.1157C21.5779 15.2795 21.7516 15.4909 21.9232 15.6992C21.9934 15.7833 22.066 15.865 22.1384 15.9469C22.2788 16.1066 22.4164 16.2687 22.5525 16.4327C22.5537 15.5069 22.5547 14.581 22.5553 13.6552C22.5553 13.5458 22.5554 13.4365 22.5555 13.3271C22.5555 13.3053 22.5555 13.2836 22.5555 13.2611C22.5557 12.9088 22.5562 12.5566 22.5567 12.2043C22.5572 11.8427 22.5575 11.481 22.5576 11.1194C22.5577 10.8964 22.5579 10.6733 22.5584 10.4503C22.5587 10.2791 22.5587 10.108 22.5586 9.93679C22.5587 9.86667 22.5588 9.79655 22.559 9.72642C22.5592 9.63058 22.5592 9.53473 22.559 9.43889C22.5592 9.41124 22.5593 9.38359 22.5595 9.35511C22.5585 9.10786 22.5382 8.88739 22.3887 8.68997C22.214 8.52102 22.0571 8.48108 21.8242 8.4809C21.7938 8.48081 21.7633 8.48071 21.732 8.48061C21.6988 8.48066 21.6657 8.4807 21.6315 8.48075C21.5961 8.48069 21.5607 8.48062 21.5242 8.48055C21.426 8.48037 21.3278 8.48037 21.2297 8.48041C21.1237 8.48042 21.0178 8.48025 20.9119 8.48011C20.7044 8.47987 20.4969 8.47979 20.2894 8.47977C20.1207 8.47976 19.9521 8.4797 19.7834 8.47961C19.3052 8.47935 18.8269 8.47921 18.3487 8.47924C18.3229 8.47924 18.2972 8.47924 18.2706 8.47924C18.2448 8.47924 18.219 8.47924 18.1924 8.47924C17.7741 8.47925 17.3558 8.47897 16.9374 8.47856C16.5078 8.47814 16.0783 8.47794 15.6487 8.47796C15.4075 8.47797 15.1664 8.47789 14.9252 8.47758C14.7199 8.47731 14.5146 8.47724 14.3093 8.47744C14.2045 8.47754 14.0998 8.47754 13.9951 8.47729C13.8815 8.47701 13.7679 8.4772 13.6544 8.47742C13.6048 8.4772 13.6048 8.4772 13.5543 8.47697C13.3124 8.47803 13.1139 8.4928 12.9176 8.66064C12.7003 8.92008 12.7225 9.19296 12.7222 9.52604C12.7221 9.56609 12.7219 9.60614 12.7218 9.64619C12.7215 9.73209 12.7212 9.818 12.7211 9.9039C12.7208 10.0397 12.7202 10.1755 12.7196 10.3113C12.7179 10.6974 12.7164 11.0834 12.7155 11.4695C12.715 11.6829 12.7143 11.8964 12.7131 12.1099C12.7126 12.2228 12.7122 12.3357 12.7121 12.4486C12.712 12.5546 12.7116 12.6606 12.7109 12.7666C12.7106 12.8241 12.7107 12.8817 12.7108 12.9392C12.7104 12.9904 12.7104 12.9904 12.7099 13.0426C12.7098 13.0723 12.7097 13.102 12.7096 13.1327C12.6992 13.2066 12.6992 13.2066 12.6613 13.2601C12.6033 13.3055 12.5657 13.3063 12.4945 13.3056C12.4734 13.3058 12.4523 13.306 12.4305 13.3062C12.3554 13.2913 12.3356 13.2719 12.2898 13.2066C12.2794 13.1289 12.2794 13.1289 12.2792 13.0334C12.2789 12.9972 12.2787 12.961 12.2784 12.9237C12.2785 12.8836 12.2786 12.8434 12.2788 12.8032C12.2786 12.761 12.2784 12.7187 12.2782 12.6765C12.2777 12.5616 12.2777 12.4467 12.2779 12.3318C12.278 12.2357 12.2778 12.1397 12.2777 12.0436C12.2773 11.8168 12.2773 11.59 12.2776 11.3631C12.2779 11.1297 12.2776 10.8962 12.2768 10.6627C12.2762 10.462 12.276 10.2612 12.2762 10.0605C12.2763 9.94074 12.2762 9.82099 12.2757 9.70123C12.2753 9.58837 12.2754 9.47553 12.2759 9.36267C12.276 9.32147 12.276 9.28027 12.2757 9.23908C12.2733 8.86385 12.3318 8.58894 12.5782 8.31546C12.8525 8.04533 13.0857 8.00662 13.4484 8.00757ZM9.60375 14.393C9.41572 14.6263 9.41977 14.8567 9.42061 15.152C9.42058 15.1821 9.42056 15.2122 9.42054 15.2433C9.42049 15.344 9.42064 15.4447 9.42079 15.5453C9.4208 15.6176 9.42079 15.6899 9.42078 15.7621C9.42077 15.9176 9.42085 16.0731 9.421 16.2286C9.42123 16.4533 9.4213 16.6781 9.42133 16.9029C9.42139 17.2676 9.42157 17.6324 9.42183 17.9971C9.42208 18.3513 9.42227 18.7055 9.42239 19.0598C9.4224 19.0816 9.4224 19.1035 9.42241 19.126C9.42245 19.2356 9.42248 19.3452 9.42252 19.4548C9.4228 20.3636 9.42328 21.2723 9.42389 22.1811C9.55727 22.0676 9.65824 21.951 9.76013 21.805C10.1222 21.2911 10.5221 20.7915 11.1412 20.6951C11.554 20.646 11.9711 20.6584 12.3855 20.6744C12.6042 20.6825 12.8227 20.6835 13.0415 20.6842C13.4317 20.6857 13.8216 20.6924 14.2116 20.7026C14.589 20.7126 14.9663 20.72 15.3438 20.7242C15.3672 20.7245 15.3906 20.7248 15.4147 20.725C15.5554 20.7266 15.6961 20.728 15.8368 20.7295C16.0417 20.7316 16.2466 20.7339 16.4515 20.7363C16.4735 20.7365 16.4956 20.7368 16.5183 20.7371C16.8223 20.7406 17.1263 20.7457 17.4303 20.7523C17.492 20.7536 17.5537 20.7549 17.6154 20.7562C17.9383 20.7629 17.9383 20.7629 18.0763 20.7664C18.1784 20.769 18.2805 20.7712 18.3827 20.7734C18.4123 20.7743 18.4419 20.7752 18.4724 20.7761C18.7063 20.7805 18.8968 20.7601 19.0861 20.5974C19.2846 20.3776 19.3077 20.1773 19.3081 19.8766C19.3082 19.8551 19.3082 19.8337 19.3083 19.8116C19.3084 19.7403 19.3084 19.669 19.3084 19.5977C19.3085 19.5464 19.3086 19.4951 19.3087 19.4438C19.3089 19.3047 19.309 19.1656 19.309 19.0266C19.309 18.9396 19.3091 18.8526 19.3092 18.7657C19.3094 18.4621 19.3095 18.1584 19.3095 17.8548C19.3095 17.5722 19.3098 17.2895 19.3102 17.0068C19.3106 16.7638 19.3107 16.5208 19.3107 16.2778C19.3107 16.1328 19.3108 15.9878 19.311 15.8428C19.3113 15.7064 19.3113 15.5701 19.3111 15.4337C19.3111 15.3837 19.3111 15.3338 19.3113 15.2839C19.3229 14.8183 19.3229 14.8183 19.1407 14.409C18.9597 14.2209 18.7981 14.1708 18.5489 14.1706C18.5184 14.1705 18.488 14.1705 18.4567 14.1704C18.4235 14.1704 18.3904 14.1704 18.3562 14.1705C18.3208 14.1704 18.2854 14.1704 18.2489 14.1703C18.1507 14.1701 18.0525 14.1701 17.9544 14.1701C17.8484 14.1702 17.7425 14.17 17.6365 14.1699C17.429 14.1696 17.2216 14.1695 17.0141 14.1695C16.8454 14.1695 16.6767 14.1694 16.5081 14.1693C16.0299 14.1691 15.5516 14.169 15.0734 14.169C15.0476 14.169 15.0218 14.169 14.9953 14.169C14.9695 14.169 14.9437 14.169 14.9171 14.169C14.4988 14.169 14.0804 14.1687 13.6621 14.1683C13.2325 14.1679 12.8029 14.1677 12.3733 14.1677C12.1322 14.1677 11.891 14.1676 11.6499 14.1673C11.4446 14.167 11.2393 14.167 11.034 14.1672C10.9292 14.1673 10.8245 14.1673 10.7198 14.167C10.6062 14.1668 10.4926 14.1669 10.379 14.1672C10.3295 14.1669 10.3295 14.1669 10.279 14.1667C10.0226 14.1678 9.79324 14.1832 9.60375 14.393Z" fill="#F08559"/>
<path d="M16.3157 16.858C16.4722 16.9594 16.5724 17.1295 16.6296 17.3126C16.6611 17.5449 16.6224 17.7383 16.4931 17.9285C16.3102 18.1167 16.1564 18.1447 15.9068 18.1417C15.7503 18.1288 15.6519 18.0851 15.5449 17.9616C15.4129 17.7822 15.359 17.6273 15.3639 17.398C15.3881 17.1944 15.4729 17.0399 15.6231 16.9148C15.8141 16.7738 16.103 16.7572 16.3157 16.858ZM15.8534 17.3291C15.8016 17.4013 15.8016 17.4013 15.8125 17.5069C15.8292 17.6133 15.8292 17.6133 15.9199 17.6645C16.0182 17.678 16.0661 17.6766 16.1502 17.6187C16.202 17.5464 16.202 17.5464 16.1912 17.4409C16.1745 17.3344 16.1745 17.3344 16.0837 17.2832C15.9854 17.2698 15.9375 17.2711 15.8534 17.3291Z" fill="#F08559"/>
<path d="M14.678 16.858C14.8345 16.9594 14.9347 17.1295 14.9919 17.3126C15.0235 17.5449 14.9848 17.7383 14.8555 17.9285C14.6725 18.1167 14.5188 18.1447 14.2692 18.1417C14.1126 18.1288 14.0142 18.0851 13.9072 17.9616C13.7753 17.7822 13.7214 17.6273 13.7263 17.398C13.7504 17.1944 13.8352 17.0399 13.9855 16.9148C14.1765 16.7738 14.4653 16.7572 14.678 16.858ZM14.2157 17.3291C14.164 17.4013 14.164 17.4013 14.1748 17.5069C14.1915 17.6133 14.1915 17.6133 14.2823 17.6645C14.3805 17.678 14.4285 17.6766 14.5126 17.6187C14.5643 17.5464 14.5643 17.5464 14.5535 17.4409C14.5368 17.3344 14.5368 17.3344 14.446 17.2832C14.3478 17.2698 14.2998 17.2711 14.2157 17.3291Z" fill="#F08559"/>
<path d="M13.0404 16.858C13.1968 16.9594 13.2971 17.1295 13.3543 17.3126C13.3858 17.5449 13.3471 17.7383 13.2178 17.9285C13.0348 18.1167 12.8811 18.1447 12.6315 18.1417C12.4749 18.1288 12.3766 18.0851 12.2695 17.9616C12.1376 17.7822 12.0837 17.6273 12.0886 17.398C12.1127 17.1944 12.1975 17.0399 12.3478 16.9148C12.5388 16.7738 12.8277 16.7572 13.0404 16.858ZM12.5781 17.3291C12.5263 17.4013 12.5263 17.4013 12.5371 17.5069C12.5539 17.6133 12.5539 17.6133 12.6446 17.6645C12.7429 17.678 12.7908 17.6766 12.8749 17.6187C12.9267 17.5464 12.9267 17.5464 12.9159 17.4409C12.8991 17.3344 12.8991 17.3344 12.8084 17.2832C12.7101 17.2698 12.6622 17.2711 12.5781 17.3291Z" fill="#F08559"/>
<path d="M19.591 11.1389C19.7475 11.2403 19.8477 11.4105 19.9049 11.5935C19.9365 11.8258 19.8977 12.0193 19.7684 12.2094C19.5855 12.3976 19.4317 12.4256 19.1821 12.4226C19.0256 12.4097 18.9272 12.366 18.8202 12.2425C18.6883 12.0631 18.6344 11.9082 18.6392 11.679C18.6634 11.4754 18.7482 11.3208 18.8984 11.1957C19.0895 11.0548 19.3783 11.0382 19.591 11.1389ZM19.1287 11.61C19.077 11.6823 19.077 11.6823 19.0878 11.7878C19.1045 11.8943 19.1045 11.8943 19.1953 11.9454C19.2935 11.9589 19.3415 11.9575 19.4256 11.8996C19.4773 11.8274 19.4773 11.8274 19.4665 11.7218C19.4498 11.6153 19.4498 11.6153 19.359 11.5642C19.2608 11.5507 19.2128 11.5521 19.1287 11.61Z" fill="#F08559"/>
<path d="M17.9534 11.1389C18.1098 11.2403 18.21 11.4105 18.2673 11.5935C18.2988 11.8258 18.2601 12.0193 18.1308 12.2094C17.9478 12.3976 17.7941 12.4256 17.5445 12.4226C17.3879 12.4097 17.2896 12.366 17.1825 12.2425C17.0506 12.0631 16.9967 11.9082 17.0016 11.679C17.0257 11.4754 17.1105 11.3208 17.2608 11.1957C17.4518 11.0548 17.7406 11.0382 17.9534 11.1389ZM17.4911 11.61C17.4393 11.6823 17.4393 11.6823 17.4501 11.7878C17.4668 11.8943 17.4668 11.8943 17.5576 11.9454C17.6559 11.9589 17.7038 11.9575 17.7879 11.8996C17.8397 11.8274 17.8397 11.8274 17.8288 11.7218C17.8121 11.6153 17.8121 11.6153 17.7214 11.5642C17.6231 11.5507 17.5752 11.5521 17.4911 11.61Z" fill="#F08559"/>
<path d="M16.3157 11.1389C16.4722 11.2403 16.5724 11.4105 16.6296 11.5935C16.6611 11.8258 16.6224 12.0193 16.4931 12.2094C16.3102 12.3976 16.1564 12.4256 15.9068 12.4226C15.7503 12.4097 15.6519 12.366 15.5449 12.2425C15.4129 12.0631 15.359 11.9082 15.3639 11.679C15.3881 11.4754 15.4729 11.3208 15.6231 11.1957C15.8141 11.0548 16.103 11.0382 16.3157 11.1389ZM15.8534 11.61C15.8016 11.6823 15.8016 11.6823 15.8125 11.7878C15.8292 11.8943 15.8292 11.8943 15.9199 11.9454C16.0182 11.9589 16.0661 11.9575 16.1502 11.8996C16.202 11.8274 16.202 11.8274 16.1912 11.7218C16.1745 11.6153 16.1745 11.6153 16.0837 11.5642C15.9854 11.5507 15.9375 11.5521 15.8534 11.61Z" fill="#F08559"/>
</svg>
