<svg width="32" height="30" viewBox="0 0 32 30" fill="none" xmlns="http://www.w3.org/2000/svg">
<rect x="0.5" y="0.5" width="30.5" height="29" rx="14.5" stroke="#F08559"/>
<path d="M10.0309 9.00098C10.0848 9.00088 10.1386 9.00074 10.1924 9.00056C10.3391 9.00018 10.4859 9.00037 10.6326 9.00065C10.7913 9.00085 10.95 9.00053 11.1087 9.00029C11.4192 8.99989 11.7296 8.99997 12.0401 9.00023C12.2925 9.00044 12.5449 9.00047 12.7973 9.00037C12.8332 9.00035 12.8692 9.00034 12.9063 9.00033C12.9794 9.0003 13.0525 9.00027 13.1256 9.00024C13.8104 8.99998 14.4952 9.00028 15.18 9.00076C15.7671 9.00116 16.3542 9.00109 16.9412 9.00068C17.6237 9.0002 18.3061 9.00001 18.9885 9.00028C19.0614 9.00031 19.1342 9.00034 19.207 9.00037C19.2429 9.00038 19.2787 9.0004 19.3156 9.00041C19.5676 9.00049 19.8196 9.00036 20.0715 9.00014C20.3788 8.99989 20.686 8.99996 20.9933 9.00044C21.1499 9.00068 21.3065 9.00077 21.4632 9.00047C21.6068 9.0002 21.7504 9.00035 21.894 9.00083C21.9457 9.00093 21.9975 9.00088 22.0492 9.00066C22.6216 8.99841 23.1391 9.08057 23.5696 9.47878C23.8731 9.80015 24.0025 10.1696 23.9986 10.5999C23.9988 10.6338 23.999 10.6677 23.9992 10.7026C23.9997 10.8153 23.9993 10.9279 23.9989 11.0405C23.9991 11.1217 23.9993 11.2028 23.9996 11.284C24.0002 11.4809 24 11.6779 23.9997 11.8748C23.9994 12.035 23.9994 12.1951 23.9995 12.3553C23.9995 12.3782 23.9995 12.401 23.9995 12.4246C23.9996 12.471 23.9996 12.5175 23.9997 12.5639C24 12.9987 23.9996 13.4335 23.9989 13.8683C23.9984 14.2408 23.9985 14.6133 23.9991 14.9858C23.9997 15.4191 24 15.8525 23.9996 16.2858C23.9996 16.3321 23.9995 16.3783 23.9995 16.4246C23.9995 16.4474 23.9995 16.4701 23.9994 16.4936C23.9993 16.6534 23.9995 16.8133 23.9998 16.9731C24.0002 17.1681 24.0001 17.3631 23.9994 17.5581C23.9991 17.6574 23.999 17.7567 23.9993 17.8561C23.9997 17.9641 23.9993 18.0721 23.9986 18.1801C23.9989 18.211 23.9992 18.242 23.9995 18.2739C23.995 18.6805 23.8292 19.0418 23.5425 19.3375C23.1535 19.6929 22.7343 19.7815 22.2136 19.7789C22.1679 19.779 22.1221 19.7791 22.0763 19.7793C21.9513 19.7796 21.8263 19.7795 21.7014 19.7792C21.5662 19.779 21.4311 19.7793 21.296 19.7795C21.0621 19.7799 20.8282 19.78 20.5943 19.7798C20.2557 19.7796 19.917 19.78 19.5784 19.7805C19.0283 19.7814 18.4783 19.7819 17.9283 19.7822C17.8789 19.7822 17.8789 19.7822 17.8286 19.7822C17.5952 19.7823 17.3617 19.7824 17.1283 19.7825C16.8618 19.7826 16.5953 19.7827 16.3287 19.7829C16.2795 19.7829 16.2795 19.7829 16.2292 19.7829C15.6813 19.7832 15.1333 19.7838 14.5853 19.7846C14.2477 19.7852 13.91 19.7854 13.5724 19.7851C13.3409 19.785 13.1094 19.7852 12.878 19.7856C12.7446 19.7859 12.6112 19.786 12.4778 19.7857C12.3555 19.7854 12.2331 19.7856 12.1108 19.786C12.0667 19.7861 12.0227 19.7861 11.9787 19.7858C11.3802 19.783 10.9664 19.9258 10.5421 20.3269C10.4513 20.4145 10.3616 20.5031 10.2719 20.5918C10.2259 20.6366 10.1799 20.6813 10.1339 20.7261C9.95005 20.9054 9.76906 21.0852 9.59779 21.2758C9.49392 21.3906 9.38309 21.4989 9.27237 21.6076C9.24894 21.6313 9.22551 21.655 9.20137 21.6794C9.03182 21.8453 8.86603 21.9737 8.61941 22C8.42472 21.9746 8.27271 21.9369 8.13426 21.7967C7.98288 21.597 7.99972 21.3792 8.0017 21.1429C8.00152 21.0961 8.00127 21.0494 8.00096 21.0026C8.00031 20.8745 8.00063 20.7464 8.00112 20.6183C8.00147 20.48 8.00093 20.3416 8.0005 20.2033C7.9998 19.9324 7.99995 19.6616 8.00041 19.3907C8.00076 19.1704 8.00081 18.9501 8.00064 18.7299C8.0006 18.6828 8.0006 18.6828 8.00056 18.6348C8.00051 18.5711 8.00046 18.5074 8.00041 18.4437C7.99997 17.8462 8.00048 17.2486 8.00132 16.6511C8.00201 16.1389 8.00189 15.6267 8.00117 15.1144C8.00034 14.5193 8.00001 13.9242 8.00049 13.3291C8.00054 13.2655 8.00059 13.202 8.00064 13.1385C8.00066 13.1072 8.00068 13.0759 8.00071 13.0437C8.00084 12.8239 8.00062 12.6041 8.00025 12.3843C7.99981 12.1162 7.99993 11.848 8.00076 11.5798C8.00117 11.4431 8.00133 11.3064 8.00082 11.1697C8.00035 11.0443 8.00061 10.919 8.00144 10.7936C8.00161 10.7484 8.00152 10.7033 8.00114 10.6582C7.99735 10.1717 8.13888 9.79311 8.48509 9.43231C8.91387 9.03886 9.4717 8.9986 10.0309 9.00098ZM8.73851 9.91369C8.59894 10.1347 8.51636 10.3233 8.51645 10.5818C8.51639 10.6206 8.51632 10.6593 8.51626 10.6992C8.51635 10.7423 8.51644 10.7854 8.51654 10.8285C8.51652 10.8742 8.51649 10.9199 8.51646 10.9656C8.51639 11.0914 8.51651 11.2172 8.51667 11.343C8.5168 11.4785 8.51676 11.6141 8.51673 11.7497C8.51672 11.9846 8.51681 12.2196 8.51699 12.4545C8.51724 12.7942 8.51732 13.1339 8.51736 13.4736C8.51743 14.0247 8.51764 14.5758 8.51793 15.1268C8.51822 15.6622 8.51844 16.1976 8.51857 16.733C8.51858 16.766 8.51859 16.799 8.5186 16.833C8.51864 16.9985 8.51868 17.164 8.51872 17.3295C8.51904 18.703 8.51959 20.0764 8.52028 21.4499C8.57992 21.4681 8.57992 21.4681 8.64498 21.4799C8.70206 21.4469 8.70206 21.4469 8.75297 21.3934C8.78373 21.3638 8.78373 21.3638 8.81512 21.3337C8.8479 21.3011 8.8479 21.3011 8.88135 21.2678C8.90418 21.2457 8.92701 21.2236 8.95054 21.2007C9.02376 21.1295 9.09642 21.0578 9.1691 20.9861C9.21772 20.9387 9.26637 20.8914 9.31505 20.8441C9.50712 20.6569 9.69712 20.4697 9.87591 20.2705C10.284 19.8179 10.7529 19.4187 11.3883 19.3169C11.5384 19.3081 11.6884 19.3087 11.8387 19.3091C11.8846 19.309 11.9305 19.3089 11.9764 19.3088C12.1022 19.3085 12.2279 19.3085 12.3536 19.3087C12.4894 19.3087 12.6251 19.3085 12.7609 19.3082C12.996 19.3079 13.2311 19.3077 13.4663 19.3077C13.8066 19.3077 14.1469 19.3072 14.4872 19.3066C15.0398 19.3057 15.5924 19.305 16.145 19.3044C16.178 19.3044 16.2111 19.3044 16.2451 19.3043C16.614 19.304 16.9828 19.3037 17.3516 19.3034C17.4854 19.3033 17.6191 19.3033 17.7529 19.3032C17.7859 19.3031 17.8189 19.3031 17.8529 19.3031C18.4033 19.3027 18.9538 19.302 19.5043 19.3009C19.8437 19.3003 20.1831 19.3 20.5225 19.3001C20.7551 19.3001 20.9876 19.2998 21.2202 19.2993C21.3544 19.299 21.4885 19.2988 21.6227 19.2991C21.7456 19.2993 21.8685 19.2991 21.9914 19.2986C22.0358 19.2985 22.0801 19.2985 22.1245 19.2987C22.5328 19.3004 22.8516 19.2399 23.1625 18.9751C23.4225 18.6908 23.4985 18.4268 23.4961 18.0483C23.4963 18.0156 23.4964 17.983 23.4966 17.9493C23.4971 17.8406 23.4968 17.7319 23.4966 17.6231C23.4968 17.5449 23.497 17.4667 23.4973 17.3884C23.4978 17.1984 23.4978 17.0083 23.4977 16.8183C23.4975 16.6638 23.4976 16.5092 23.4977 16.3547C23.4978 16.3326 23.4978 16.3106 23.4978 16.2879C23.4979 16.2431 23.4979 16.1983 23.498 16.1535C23.4984 15.7341 23.4982 15.3146 23.4979 14.8952C23.4975 14.512 23.498 14.1287 23.4987 13.7455C23.4995 13.3514 23.4998 12.9572 23.4996 12.5631C23.4994 12.3421 23.4995 12.1211 23.5001 11.9001C23.5006 11.6922 23.5004 11.4844 23.4998 11.2765C23.4997 11.2004 23.4998 11.1242 23.5001 11.048C23.5006 10.9438 23.5002 10.8397 23.4996 10.7355C23.4999 10.7055 23.5002 10.6756 23.5005 10.6448C23.4972 10.333 23.3971 10.0518 23.1723 9.82356C22.8467 9.53212 22.4983 9.5055 22.0744 9.50768C22.0198 9.50752 21.9653 9.50731 21.9108 9.50705C21.7615 9.50649 21.6122 9.50668 21.4629 9.50699C21.3017 9.5072 21.1405 9.50672 20.9793 9.50633C20.6637 9.50568 20.3481 9.50569 20.0325 9.50593C19.7759 9.50612 19.5194 9.50609 19.2628 9.50589C19.208 9.50585 19.208 9.50585 19.1521 9.50581C19.0779 9.50576 19.0036 9.5057 18.9294 9.50564C18.2336 9.50515 17.5377 9.50541 16.8419 9.50591C16.2055 9.50635 15.5692 9.50592 14.9328 9.50505C14.2791 9.50417 13.6254 9.50384 12.9718 9.50412C12.8978 9.50415 12.8238 9.50418 12.7499 9.50421C12.7135 9.50423 12.6771 9.50424 12.6396 9.50426C12.3834 9.50432 12.1273 9.50403 11.8711 9.50359C11.5588 9.50306 11.2465 9.50307 10.9341 9.50375C10.7749 9.50408 10.6156 9.50418 10.4563 9.50362C10.3104 9.50311 10.1644 9.50331 10.0185 9.50405C9.9658 9.50419 9.91315 9.50409 9.86049 9.5037C9.42316 9.50072 9.03227 9.57185 8.73851 9.91369Z" fill="#F08559"/>
<path d="M13.1341 11.7162C13.2127 11.821 13.2683 11.935 13.3259 12.0515C13.3429 12.0846 13.3599 12.1176 13.3774 12.1517C13.4314 12.2572 13.4844 12.3632 13.5374 12.4691C13.5738 12.5407 13.6105 12.6121 13.6471 12.6835C13.7135 12.8138 13.7799 12.9442 13.8454 13.075C13.8586 13.1013 13.8718 13.1276 13.8853 13.1547C13.9135 13.2183 13.9135 13.2183 13.9135 13.2784C13.9464 13.2817 13.9794 13.2851 14.0133 13.2885C14.3574 13.324 14.7004 13.3654 15.0429 13.4134C15.0986 13.4212 15.1544 13.4287 15.2102 13.436C15.2924 13.4467 15.3743 13.4581 15.4564 13.4697C15.4937 13.4744 15.4937 13.4744 15.5317 13.4792C15.6383 13.4949 15.7122 13.512 15.7994 13.5745C15.8568 13.6533 15.8625 13.7211 15.8659 13.8162C15.8176 13.9715 15.6227 14.0842 15.4969 14.183C14.8796 14.6352 14.8796 14.6352 14.533 15.2648C14.5212 15.5553 14.6139 15.8361 14.7145 16.1067C14.806 16.3562 14.8539 16.6496 14.8175 16.9135C14.7708 16.9942 14.7708 16.9942 14.6928 17.0337C14.4631 17.0591 14.3288 16.9886 14.1336 16.8778C14.0733 16.845 14.013 16.8122 13.9527 16.7795C13.9211 16.7622 13.8896 16.745 13.8571 16.7272C13.6844 16.6334 13.5099 16.543 13.3348 16.4535C13.285 16.4273 13.285 16.4273 13.2343 16.4006C13.2031 16.3847 13.1719 16.3688 13.1398 16.3524C13.1124 16.3382 13.0849 16.324 13.0566 16.3093C12.9423 16.2703 12.8754 16.2899 12.7662 16.3367C12.6983 16.3684 12.6315 16.4015 12.5647 16.4352C12.54 16.4474 12.5152 16.4597 12.4898 16.4724C12.4109 16.5116 12.3322 16.5511 12.2534 16.5905C12.2009 16.6167 12.1485 16.6427 12.096 16.6688C12.045 16.6942 11.9941 16.7196 11.9431 16.745C11.9198 16.7566 11.8966 16.7682 11.8726 16.7802C11.7306 16.8514 11.5912 16.9256 11.4532 17.0038C11.3391 17.0563 11.2636 17.054 11.1389 17.0337C11.061 16.9736 11.061 16.9736 11.0142 16.8835C11.0027 16.6909 11.0325 16.5126 11.0688 16.3237C11.0771 16.2788 11.0771 16.2788 11.0856 16.2331C11.1032 16.1381 11.121 16.0433 11.1389 15.9484C11.1568 15.8533 11.1747 15.7582 11.1923 15.6631C11.2032 15.6041 11.2143 15.5451 11.2256 15.4861C11.2641 15.2848 11.2641 15.2848 11.2636 15.0809C11.198 14.9947 11.198 14.9947 11.1078 14.9176C11.0788 14.891 11.0499 14.8644 11.0201 14.837C10.9498 14.775 10.8779 14.715 10.8056 14.6552C10.6397 14.5159 10.4855 14.3655 10.3303 14.2153C10.3002 14.1864 10.2701 14.1575 10.2399 14.1286C10.2116 14.1012 10.1833 14.0739 10.1541 14.0458C10.1285 14.021 10.1028 13.9962 10.0763 13.9707C10.0046 13.8968 9.9877 13.8652 9.97379 13.7647C9.98612 13.6637 10.0076 13.622 10.0841 13.553C10.2116 13.4767 10.3675 13.4709 10.5136 13.4526C10.5498 13.4475 10.5859 13.4425 10.6232 13.4373C10.7385 13.4213 10.854 13.4061 10.9694 13.3911C11.085 13.3754 11.2005 13.3595 11.316 13.3436C11.3878 13.3338 11.4597 13.3241 11.5316 13.3146C11.5641 13.3103 11.5967 13.306 11.6302 13.3015C11.6589 13.2977 11.6875 13.294 11.7169 13.2901C11.7422 13.2863 11.7675 13.2824 11.7936 13.2784C11.8162 13.2751 11.8388 13.2718 11.8621 13.2683C11.9366 13.2419 11.9494 13.214 11.9839 13.1459C12.0007 13.1133 12.0007 13.1133 12.0179 13.0802C12.0297 13.0565 12.0414 13.0328 12.0535 13.0084C12.0723 12.9717 12.0723 12.9717 12.0914 12.9343C12.1316 12.8558 12.1711 12.777 12.2106 12.6982C12.2369 12.6464 12.2633 12.5946 12.2897 12.5428C12.383 12.3597 12.4758 12.1763 12.5678 11.9925C12.584 11.9604 12.6003 11.9283 12.617 11.8952C12.6306 11.8681 12.6442 11.841 12.6582 11.8131C12.7076 11.7294 12.7559 11.6731 12.8457 11.6298C12.9597 11.6237 13.0435 11.6525 13.1341 11.7162ZM12.9159 12.4673C12.8696 12.5504 12.8235 12.6337 12.7775 12.717C12.7635 12.7424 12.7495 12.7678 12.735 12.794C12.662 12.9276 12.5917 13.0616 12.5264 13.1988C12.5142 13.2245 12.502 13.2501 12.4895 13.2765C12.4664 13.3256 12.4436 13.3748 12.4212 13.4243C12.4107 13.4467 12.4001 13.4692 12.3892 13.4923C12.3802 13.512 12.3713 13.5316 12.3621 13.5519C12.296 13.6496 12.2236 13.714 12.1048 13.7459C12.0284 13.7592 11.9522 13.7691 11.8751 13.7781C11.8471 13.7818 11.8191 13.7855 11.7902 13.7893C11.7011 13.8009 11.612 13.812 11.5228 13.8229C11.4333 13.8342 11.3438 13.8455 11.2543 13.8572C11.1988 13.8644 11.1431 13.8714 11.0875 13.8781C10.9427 13.8919 10.9427 13.8919 10.8272 13.9694C10.9158 14.0555 11.0044 14.1415 11.0932 14.2274C11.1233 14.2565 11.1533 14.2857 11.1833 14.3149C11.3448 14.4718 11.5063 14.6258 11.6827 14.7673C11.7475 14.825 11.7898 14.8761 11.803 14.9615C11.8044 15.2481 11.7501 15.5261 11.7001 15.8076C11.691 15.8596 11.682 15.9117 11.673 15.9637C11.6512 16.0901 11.629 16.2164 11.6066 16.3427C11.9568 16.1764 11.9568 16.1764 12.301 15.999C12.3305 15.9834 12.36 15.9677 12.3904 15.9516C12.4496 15.9201 12.5085 15.8881 12.5672 15.8556C12.7215 15.7749 12.8479 15.7124 13.0249 15.7457C13.2086 15.8074 13.3763 15.9018 13.5452 15.9935C13.5844 16.0143 13.6236 16.0351 13.6628 16.0559C13.735 16.0941 13.807 16.1327 13.8789 16.1714C14.0433 16.2704 14.0433 16.2704 14.2252 16.3127C14.1761 15.9682 14.1241 15.6254 14.0553 15.2841C14.0497 15.2468 14.044 15.2095 14.0382 15.1711C14.0348 15.1515 14.0314 15.1319 14.028 15.1118C14.0187 15.0189 14.0221 14.956 14.0733 14.8754C14.1311 14.8099 14.1926 14.7504 14.2564 14.6904C14.2858 14.6616 14.3152 14.6328 14.3445 14.6039C14.4436 14.5068 14.5438 14.4108 14.6441 14.3149C14.6792 14.2812 14.7142 14.2476 14.7493 14.2139C14.8343 14.1323 14.9194 14.0508 15.0046 13.9694C14.9943 13.9495 14.984 13.9297 14.9734 13.9093C14.8807 13.8921 14.7898 13.8786 14.6962 13.8672C14.6388 13.8596 14.5814 13.8519 14.5239 13.8443C14.4331 13.8326 14.3422 13.8211 14.2514 13.8095C14.1639 13.7984 14.0764 13.7868 13.989 13.7752C13.9619 13.7719 13.9349 13.7686 13.907 13.7652C13.6461 13.7303 13.6461 13.7303 13.5394 13.6389C13.4826 13.5542 13.4387 13.4651 13.3946 13.3738C13.3752 13.335 13.3752 13.335 13.3554 13.2954C13.3143 13.2129 13.2739 13.1302 13.2335 13.0475C13.2057 12.9914 13.1779 12.9354 13.15 12.8794C13.0819 12.7422 13.0143 12.6048 12.9471 12.4673C12.9368 12.4673 12.9265 12.4673 12.9159 12.4673Z" fill="#F08559"/>
<path d="M17.3208 15.8766C17.3604 15.8762 17.4 15.8758 17.4408 15.8754C17.4845 15.8756 17.5281 15.8758 17.5718 15.876C17.6179 15.8758 17.6641 15.8756 17.7102 15.8753C17.8354 15.8746 17.9605 15.8747 18.0856 15.8749C18.1902 15.8751 18.2947 15.8749 18.3992 15.8747C18.6457 15.8741 18.8923 15.8742 19.1388 15.8748C19.3931 15.8753 19.6474 15.8748 19.9017 15.8738C20.1202 15.873 20.3386 15.8728 20.557 15.873C20.6874 15.8732 20.8179 15.8731 20.9483 15.8725C21.0709 15.872 21.1935 15.8721 21.3161 15.8729C21.3611 15.873 21.4061 15.8729 21.4511 15.8725C21.5125 15.8721 21.5739 15.8726 21.6354 15.8732C21.6697 15.8732 21.7041 15.8732 21.7395 15.8732C21.8628 15.8984 21.91 15.9485 21.9876 16.0423C22.0052 16.1493 22.0052 16.1493 21.9876 16.2526C21.9185 16.3399 21.8779 16.3679 21.7694 16.4028C21.7081 16.4057 21.6467 16.4067 21.5852 16.4068C21.5468 16.4069 21.5083 16.4071 21.4687 16.4072C21.426 16.4072 21.3833 16.4072 21.3406 16.4071C21.2957 16.4072 21.2508 16.4073 21.2059 16.4075C21.0838 16.4077 20.9618 16.4078 20.8397 16.4078C20.7378 16.4078 20.636 16.4079 20.5341 16.4081C20.2937 16.4083 20.0534 16.4084 19.813 16.4084C19.565 16.4083 19.3171 16.4086 19.0691 16.4091C18.8562 16.4095 18.6434 16.4097 18.4305 16.4097C18.3034 16.4097 18.1762 16.4097 18.0491 16.4101C17.9295 16.4103 17.8099 16.4103 17.6903 16.4101C17.6464 16.4101 17.6026 16.4102 17.5587 16.4104C17.4987 16.4106 17.4388 16.4104 17.3789 16.4102C17.3453 16.4102 17.3118 16.4102 17.2773 16.4103C17.1825 16.4024 17.1157 16.3839 17.0309 16.3427C16.9571 16.2573 16.9374 16.2121 16.9374 16.1005C17.0016 15.9188 17.1337 15.8771 17.3208 15.8766Z" fill="#F08559"/>
<path d="M17.3208 12.3617C17.3604 12.3613 17.4 12.3609 17.4408 12.3605C17.4845 12.3607 17.5281 12.3609 17.5718 12.3611C17.6179 12.3609 17.6641 12.3606 17.7102 12.3603C17.8354 12.3597 17.9605 12.3597 18.0856 12.36C18.1902 12.3602 18.2947 12.3599 18.3992 12.3597C18.6457 12.3592 18.8923 12.3593 19.1388 12.3598C19.3931 12.3603 19.6474 12.3599 19.9017 12.3589C20.1202 12.3581 20.3386 12.3579 20.557 12.3581C20.6874 12.3583 20.8179 12.3582 20.9483 12.3576C21.0709 12.357 21.1935 12.3572 21.3161 12.358C21.3611 12.3581 21.4061 12.358 21.4511 12.3576C21.5125 12.3571 21.5739 12.3577 21.6354 12.3583C21.6697 12.3583 21.7041 12.3583 21.7395 12.3583C21.8628 12.3835 21.91 12.4336 21.9876 12.5274C22.0052 12.6344 22.0052 12.6344 21.9876 12.7376C21.9185 12.825 21.8779 12.853 21.7694 12.8879C21.7081 12.8907 21.6467 12.8918 21.5852 12.8919C21.5468 12.892 21.5083 12.8921 21.4687 12.8923C21.426 12.8923 21.3833 12.8922 21.3406 12.8922C21.2957 12.8923 21.2508 12.8924 21.2059 12.8925C21.0838 12.8928 20.9618 12.8929 20.8397 12.8929C20.7378 12.8929 20.636 12.893 20.5341 12.8931C20.2937 12.8934 20.0534 12.8934 19.813 12.8934C19.565 12.8934 19.3171 12.8937 19.0691 12.8942C18.8562 12.8946 18.6434 12.8948 18.4305 12.8947C18.3034 12.8947 18.1762 12.8948 18.0491 12.8951C17.9295 12.8954 17.8099 12.8954 17.6903 12.8952C17.6464 12.8952 17.6026 12.8952 17.5587 12.8954C17.4987 12.8957 17.4388 12.8955 17.3789 12.8953C17.3453 12.8953 17.3118 12.8953 17.2773 12.8953C17.1825 12.8875 17.1157 12.8689 17.0309 12.8278C16.9571 12.7424 16.9374 12.6971 16.9374 12.5856C17.0016 12.4039 17.1337 12.3621 17.3208 12.3617Z" fill="#F08559"/>
<path d="M17.281 14.1452C17.321 14.145 17.3611 14.1448 17.4023 14.1446C17.4469 14.1445 17.4916 14.1444 17.5362 14.1443C17.583 14.1441 17.6298 14.1439 17.6766 14.1437C17.8039 14.1432 17.9313 14.1429 18.0586 14.1426C18.1381 14.1425 18.2176 14.1423 18.2971 14.1421C18.5458 14.1415 18.7944 14.1411 19.0431 14.1408C19.3303 14.1406 19.6176 14.1398 19.9049 14.1385C20.1268 14.1376 20.3486 14.1372 20.5705 14.1371C20.7031 14.137 20.8357 14.1368 20.9683 14.136C21.0931 14.1353 21.2178 14.1352 21.3425 14.1355C21.3883 14.1355 21.4341 14.1353 21.4799 14.1349C21.5423 14.1344 21.6048 14.1346 21.6673 14.135C21.7023 14.1349 21.7372 14.1348 21.7733 14.1348C21.8832 14.153 21.9197 14.1863 21.9876 14.2698C22.0053 14.3299 22.0053 14.3299 22.0052 14.39C22.0059 14.4098 22.0065 14.4296 22.0072 14.45C21.9764 14.5445 21.9158 14.5763 21.8318 14.6303C21.7389 14.6454 21.7389 14.6454 21.634 14.6456C21.5741 14.6461 21.5741 14.6461 21.513 14.6466C21.4691 14.6464 21.4251 14.6461 21.3811 14.6458C21.3346 14.646 21.2881 14.6462 21.2416 14.6465C21.1154 14.647 20.9893 14.6468 20.8632 14.6464C20.7312 14.6461 20.5992 14.6464 20.4672 14.6466C20.2456 14.6468 20.024 14.6465 19.8023 14.646C19.5461 14.6453 19.2898 14.6455 19.0336 14.6462C18.8135 14.6467 18.5935 14.6468 18.3735 14.6465C18.242 14.6463 18.1106 14.6463 17.9792 14.6467C17.8557 14.647 17.7322 14.6468 17.6087 14.6461C17.5633 14.6459 17.518 14.646 17.4727 14.6462C17.4108 14.6466 17.3489 14.6461 17.2871 14.6456C17.2352 14.6455 17.2352 14.6455 17.1822 14.6454C17.0723 14.6267 17.0362 14.5941 16.9686 14.5101C16.9319 14.3994 16.9269 14.3514 16.9783 14.2454C17.0679 14.1334 17.1401 14.1457 17.281 14.1452Z" fill="#F08559"/>
</svg>
