<svg width="15" height="15" viewBox="0 0 15 15" fill="none" xmlns="http://www.w3.org/2000/svg">
<path d="M6.83887 0.503131C6.85963 0.502973 6.8804 0.502814 6.90179 0.502651C6.94565 0.50239 6.98951 0.502207 7.03337 0.5021C7.09879 0.501833 7.16418 0.500971 7.22959 0.500092C8.04791 0.494377 8.85312 0.754499 9.50208 1.2589C9.52778 1.27852 9.55348 1.29815 9.57996 1.31837C10.1293 1.75244 10.5782 2.29147 10.6668 3.00919C10.6695 3.08201 10.6711 3.15411 10.6712 3.22692C10.6714 3.24778 10.6715 3.26864 10.6716 3.29013C10.672 3.35869 10.6722 3.42725 10.6724 3.49582C10.6725 3.5195 10.6725 3.54318 10.6726 3.56758C10.673 3.69321 10.6733 3.81883 10.6734 3.94446C10.6736 4.07269 10.6742 4.20091 10.675 4.32913C10.6756 4.42901 10.6757 4.52889 10.6757 4.62877C10.6758 4.67595 10.676 4.72312 10.6764 4.7703C10.6841 5.82652 10.3448 6.73291 9.60607 7.49778C9.08525 8.01002 9.08525 8.01002 8.89201 8.01002C8.89201 8.35841 8.89201 8.7068 8.89201 9.06575C9.00182 9.08409 9.11163 9.10242 9.22477 9.12132C9.29965 9.13646 9.3744 9.15222 9.44897 9.16878C9.46887 9.17317 9.48876 9.17756 9.50925 9.18208C9.57375 9.19635 9.63822 9.21075 9.70269 9.22517C9.7484 9.23535 9.79412 9.24553 9.83983 9.25571C9.93521 9.27696 10.0306 9.29829 10.1259 9.31967C10.2468 9.34675 10.3678 9.37358 10.4887 9.40035C10.5831 9.42126 10.6774 9.44236 10.7717 9.4635C10.8162 9.47344 10.8607 9.48334 10.9052 9.49316C11.7529 9.68039 12.493 9.98236 12.9884 10.74C13.2249 11.1195 13.3611 11.5487 13.5013 11.9704C13.5221 12.0325 13.543 12.0945 13.5638 12.1566C13.6071 12.2857 13.6501 12.4149 13.693 12.5442C13.7478 12.7092 13.8033 12.8739 13.859 13.0386C13.902 13.1663 13.9447 13.2941 13.9871 13.4221C14.0074 13.4829 14.0278 13.5436 14.0484 13.6043C14.2919 14.3233 14.2919 14.3233 14.1695 14.5823C14.0835 14.6731 14.0115 14.7266 13.8862 14.7454C13.7564 14.7456 13.6573 14.7434 13.5369 14.6917C13.3837 14.5383 13.3257 14.3222 13.2601 14.1199C13.2512 14.0928 13.2422 14.0656 13.233 14.0377C13.2137 13.9791 13.1945 13.9205 13.1754 13.8619C13.145 13.7688 13.1143 13.6758 13.0836 13.5828C12.9965 13.3186 12.9097 13.0542 12.8231 12.7898C12.7699 12.6277 12.7165 12.4657 12.663 12.3038C12.6428 12.2424 12.6226 12.1809 12.6026 12.1194C12.3961 11.486 12.1738 10.954 11.5672 10.6114C11.2847 10.4783 10.9672 10.419 10.6668 10.3437C10.6668 10.6463 10.6668 10.9488 10.6668 11.2606C10.804 11.3018 10.804 11.3018 10.9441 11.3439C11.1732 11.4415 11.3512 11.5857 11.5264 11.7606C11.5441 11.7777 11.5618 11.7948 11.58 11.8124C11.9289 12.176 12.011 12.6541 12.0098 13.1392C12.01 13.1769 12.0101 13.2146 12.0103 13.2523C12.0105 13.3306 12.0105 13.4088 12.0102 13.4871C12.0099 13.587 12.0104 13.6869 12.0112 13.7868C12.0118 13.8643 12.0117 13.9419 12.0116 14.0194C12.0116 14.074 12.012 14.1287 12.0125 14.1833C12.0101 14.4888 12.0101 14.4888 11.8869 14.6222C11.7326 14.7728 11.5486 14.7498 11.3462 14.7472C11.3126 14.7477 11.279 14.7481 11.2444 14.7486C10.9404 14.7472 10.9404 14.7472 10.8054 14.6222C10.7071 14.5101 10.6861 14.412 10.6885 14.2627C10.7018 14.1358 10.7562 14.0582 10.8487 13.9746C10.9535 13.9019 11.0111 13.8971 11.1382 13.8999C11.1369 13.7512 11.135 13.6025 11.1324 13.4537C11.1316 13.4033 11.1311 13.3528 11.1307 13.3024C11.1275 12.9242 11.116 12.6021 10.8411 12.3148C10.6483 12.1503 10.4304 12.084 10.1804 12.0882C9.92973 12.1097 9.73393 12.2114 9.56523 12.3965C9.40261 12.6002 9.35119 12.7975 9.34924 13.0534C9.34874 13.0777 9.34824 13.1021 9.34773 13.1272C9.34624 13.2042 9.34529 13.2811 9.34436 13.3581C9.34344 13.4107 9.34248 13.4632 9.34149 13.5157C9.33915 13.6438 9.33729 13.7718 9.3357 13.8999C9.36133 13.8989 9.38696 13.8979 9.41336 13.8968C9.52894 13.9008 9.57913 13.9394 9.66846 14.011C9.77283 14.1297 9.78319 14.2454 9.77938 14.4C9.74946 14.5415 9.67679 14.6259 9.55754 14.7056C9.43485 14.767 9.26937 14.741 9.13465 14.742C9.10058 14.7428 9.06652 14.7437 9.03142 14.7445C8.71309 14.7467 8.71309 14.7467 8.58697 14.6222C8.43578 14.4605 8.46039 14.2727 8.46229 14.062C8.46229 14.0232 8.46225 13.9844 8.46217 13.9455C8.46213 13.8642 8.46248 13.7829 8.46311 13.7016C8.4639 13.5983 8.46383 13.495 8.46347 13.3917C8.46328 13.3115 8.4635 13.2312 8.46384 13.151C8.46402 13.0947 8.46391 13.0384 8.46378 12.9821C8.46879 12.4831 8.62424 12.0653 8.9752 11.7051C9.21553 11.4913 9.48973 11.3242 9.80711 11.2606C9.80711 10.8938 9.80711 10.5271 9.80711 10.1493C9.64668 10.1175 9.64668 10.1175 9.48301 10.085C9.26013 10.0408 9.03851 9.99536 8.81867 9.93764C8.74457 9.92557 8.71168 9.92583 8.64243 9.95479C8.59073 10.0211 8.59073 10.0211 8.54505 10.1064C8.53151 10.13 8.53151 10.13 8.51769 10.1541C8.49815 10.1882 8.47876 10.2225 8.45952 10.2568C8.41848 10.33 8.37668 10.4027 8.3349 10.4754C8.31316 10.5133 8.29145 10.5512 8.26978 10.5891C8.15637 10.7871 8.03842 10.9823 7.91971 11.1772C7.90093 11.2081 7.88216 11.239 7.86282 11.2708C7.82667 11.3303 7.79045 11.3897 7.75414 11.449C7.71579 11.5119 7.67767 11.5748 7.6398 11.638C7.62009 11.6706 7.60037 11.7033 7.58066 11.7359C7.56312 11.7651 7.54558 11.7943 7.52751 11.8244C7.44724 11.9456 7.36795 12.0196 7.22818 12.0662C7.09876 12.0813 7.00418 12.0793 6.88675 12.0194C6.76858 11.9175 6.6882 11.8001 6.60998 11.6659C6.59274 11.6365 6.57549 11.6071 6.55772 11.5768C6.53933 11.5452 6.52094 11.5136 6.50199 11.4811C6.46238 11.4135 6.42267 11.346 6.38294 11.2785C6.37273 11.2611 6.36251 11.2437 6.35199 11.2258C6.23895 11.0338 6.12366 10.8432 6.00804 10.6528C5.98916 10.6217 5.97028 10.5906 5.95082 10.5585C5.82269 10.3476 5.69369 10.1372 5.56435 9.927C5.53633 9.93266 5.53633 9.93266 5.50775 9.93843C5.42032 9.95607 5.33289 9.97366 5.24545 9.99125C5.2161 9.99718 5.18675 10.0031 5.15652 10.0092C4.9138 10.058 4.67077 10.1035 4.4274 10.1493C4.4274 10.8185 4.4274 11.4878 4.4274 12.1774C4.49146 12.1957 4.55551 12.2141 4.62151 12.2329C4.95853 12.4245 5.16684 12.701 5.28704 13.0664C5.37317 13.4044 5.33115 13.784 5.16107 14.0873C5.11401 14.1582 5.06419 14.2235 5.00974 14.2888C4.99319 14.3089 4.97664 14.3289 4.95959 14.3495C4.75244 14.5777 4.44723 14.7268 4.1385 14.7427C3.68214 14.7514 3.35837 14.6504 3.01834 14.334C2.75499 14.0565 2.66541 13.6893 2.67269 13.3162C2.686 13.0412 2.79164 12.8091 2.95768 12.5941C2.9777 12.5655 2.99772 12.5368 3.01834 12.5073C3.16041 12.3419 3.36585 12.2448 3.56775 12.1774C3.56775 11.5723 3.56775 10.9672 3.56775 10.3437C2.86407 10.5336 2.29292 10.7044 1.92211 11.3351C1.81844 11.5432 1.75294 11.7677 1.68035 11.9881C1.66152 12.0444 1.64266 12.1006 1.62378 12.1569C1.52725 12.4449 1.43228 12.7336 1.33731 13.0222C1.28469 13.182 1.23193 13.3419 1.17911 13.5017C1.14022 13.6195 1.1016 13.7373 1.06318 13.8552C1.03897 13.9294 1.01454 14.0034 0.990071 14.0775C0.97327 14.1286 0.956724 14.1798 0.940187 14.2309C0.822756 14.585 0.822756 14.585 0.673275 14.7013C0.541572 14.7594 0.408627 14.7506 0.267825 14.7334C0.139237 14.6723 0.0830361 14.6078 0.0182507 14.4833C-0.0563653 14.1653 0.115451 13.8119 0.215722 13.516C0.236297 13.4543 0.256837 13.3925 0.277344 13.3307C0.320371 13.2013 0.363737 13.0722 0.407364 12.943C0.462745 12.7791 0.517393 12.6149 0.571798 12.4507C0.614155 12.323 0.656847 12.1954 0.699642 12.0679C0.71988 12.0075 0.740032 11.947 0.76009 11.8866C0.857843 11.5926 0.959901 11.3038 1.09173 11.0232C1.1016 11.0022 1.11146 10.9812 1.12162 10.9596C1.41778 10.3518 1.97256 9.91047 2.59719 9.67696C2.69102 9.6481 2.78578 9.6245 2.88121 9.60154C2.92342 9.59118 2.92342 9.59118 2.96648 9.58061C3.36353 9.48431 3.76254 9.3962 4.16139 9.30778C4.27629 9.2823 4.39114 9.25667 4.50599 9.23099C4.59526 9.21105 4.68454 9.19119 4.77383 9.17136C4.81626 9.16193 4.85868 9.15247 4.9011 9.14298C4.95976 9.12987 5.01845 9.11688 5.07715 9.10391C5.11043 9.09652 5.1437 9.08912 5.17799 9.0815C5.25931 9.06575 5.25931 9.06575 5.34251 9.06575C5.34251 8.71736 5.34251 8.36897 5.34251 8.01002C5.29675 7.99168 5.25099 7.97335 5.20385 7.95446C4.99204 7.81853 4.80409 7.65463 4.62151 7.48215C4.60307 7.46547 4.58462 7.44878 4.56562 7.43158C3.97361 6.87463 3.62595 6.03562 3.56775 5.23178C3.56306 5.06614 3.56249 4.90054 3.56212 4.73484C3.562 4.69914 3.562 4.69914 3.56188 4.6627C3.56147 4.5367 3.56121 4.4107 3.56109 4.28469C3.56094 4.15564 3.56027 4.0266 3.55948 3.89755C3.55896 3.79732 3.55882 3.69709 3.55878 3.59685C3.5587 3.54933 3.55848 3.50181 3.55811 3.45429C3.55271 2.70377 3.7945 2.15463 4.31648 1.62007C4.33958 1.59607 4.33958 1.59607 4.36315 1.57159C4.99245 0.926829 5.93544 0.508642 6.83887 0.503131ZM4.87282 2.27469C4.60338 2.55618 4.42295 2.85924 4.42469 3.25456C4.42478 3.29047 4.42487 3.32637 4.42496 3.36336C4.42519 3.401 4.42543 3.43864 4.42567 3.47628C4.42581 3.51446 4.42593 3.55265 4.42604 3.59083C4.42637 3.68404 4.42683 3.77724 4.4274 3.87044C4.58306 3.74035 4.72454 3.60174 4.86415 3.45468C4.99828 3.31701 5.12344 3.20039 5.32474 3.19032C5.46671 3.1972 5.58195 3.24788 5.70993 3.30611C5.9102 3.39189 6.10775 3.45827 6.32 3.50754C6.34375 3.51306 6.36749 3.51858 6.39196 3.52427C7.18173 3.69952 7.99835 3.57583 8.72342 3.22585C8.8257 3.1865 8.92359 3.18422 9.03066 3.20367C9.29618 3.33384 9.51407 3.60174 9.7197 3.81238C9.76884 3.87367 9.76884 3.87367 9.80711 3.87044C9.8092 3.76079 9.81069 3.65115 9.81168 3.54148C9.8123 3.48617 9.81336 3.43087 9.81443 3.37557C9.81799 2.90407 9.65858 2.59352 9.33515 2.25776C8.75363 1.67229 7.97861 1.35844 7.15663 1.34193C6.28437 1.34599 5.50098 1.671 4.87282 2.27469ZM5.4257 4.12048C5.41455 4.13209 5.4034 4.1437 5.39191 4.15565C5.09531 4.46286 4.8266 4.70561 4.4274 4.87061C4.39441 5.51699 4.62187 6.15574 5.03747 6.64868C5.06428 6.68161 5.06428 6.68161 5.09163 6.71521C5.55168 7.2572 6.20919 7.5834 6.91524 7.64277C7.65561 7.68872 8.33236 7.44658 8.89862 6.96829C9.40539 6.50796 9.73771 5.89134 9.80711 5.204C9.81092 5.09266 9.81066 4.98194 9.80711 4.87061C9.77927 4.85843 9.75142 4.84626 9.72273 4.83371C9.43452 4.70195 9.22332 4.54081 9.00293 4.31496C8.96718 4.27908 8.9314 4.24323 8.89558 4.20741C8.86666 4.17844 8.83774 4.14946 8.80882 4.12048C8.78332 4.12867 8.78332 4.12867 8.75731 4.13701C7.62013 4.49949 6.55897 4.50896 5.4257 4.12048ZM6.20215 8.37119C6.11818 9.07472 6.25933 9.50139 6.66025 10.0769C6.76094 10.2219 6.85093 10.3732 6.94221 10.5243C6.99107 10.6032 7.04025 10.6819 7.08953 10.7605C7.20061 10.7234 7.21274 10.6772 7.27032 10.5762C7.27962 10.5601 7.28893 10.544 7.29852 10.5274C7.33968 10.4561 7.38015 10.3844 7.42066 10.3127C7.45244 10.2565 7.48433 10.2003 7.51632 10.1443C7.52697 10.1256 7.53763 10.1069 7.54861 10.0876C7.61387 9.97468 7.68385 9.8685 7.76156 9.76357C8.08786 9.31269 8.07695 8.90683 8.03236 8.37119C8.0038 8.37689 7.97524 8.38258 7.94581 8.38845C7.35592 8.50213 6.7914 8.49983 6.20215 8.37119ZM3.64055 13.1359C3.55185 13.2442 3.53015 13.3384 3.53222 13.4797C3.54963 13.6114 3.62195 13.7033 3.71334 13.7974C3.83136 13.87 3.93553 13.9099 4.07535 13.8914C4.23827 13.8469 4.33713 13.7642 4.4274 13.6221C4.47301 13.485 4.4715 13.3647 4.42567 13.2296C4.34443 13.1089 4.25865 13.0088 4.11651 12.9635C3.9187 12.9324 3.77439 12.9855 3.64055 13.1359Z" fill="#F08559"/>
</svg>
