<svg width="886" height="234" viewBox="0 0 886 234" fill="none" xmlns="http://www.w3.org/2000/svg">
<path d="M37.0962 108.676C30.0303 108.676 24.0929 106.941 19.2841 103.47C14.4754 99.9995 11.1877 95.0912 9.42126 88.745L11.0405 88.4476V107.337H0V0.246338H11.7766V49.1809L10.1573 48.7347C12.0219 42.8844 15.4077 38.3231 20.3146 35.0509C25.3196 31.6795 31.257 29.9938 38.1267 29.9938C44.8 29.9938 50.5902 31.6299 55.4971 34.9021C60.5021 38.1744 64.3786 42.7356 67.1265 48.586C69.8743 54.4363 71.2483 61.2782 71.2483 69.1117C71.2483 77.0444 69.8253 83.9855 66.9793 89.9349C64.1333 95.8844 60.1587 100.495 55.0555 103.768C49.9523 107.04 43.9659 108.676 37.0962 108.676ZM35.3297 98.2642C42.7882 98.2642 48.6274 95.6861 52.8474 90.5299C57.0673 85.2745 59.1773 78.1351 59.1773 69.1117C59.1773 60.1875 57.0673 53.1968 52.8474 48.1398C48.6274 42.9835 42.7882 40.4054 35.3297 40.4054C27.8712 40.4054 21.9829 43.0331 17.6649 48.2885C13.3468 53.4447 11.1877 60.5345 11.1877 69.5579C11.1877 78.383 13.3468 85.3737 17.6649 90.5299C21.9829 95.6861 27.8712 98.2642 35.3297 98.2642Z" fill="#020202"/>
<path d="M88.9856 107.337V31.4812H100.762V107.337H88.9856ZM88.1023 14.2276V0.246338H101.645V14.2276H88.1023Z" fill="#020202"/>
<path d="M149.817 108.825C140.592 108.825 133.231 106.693 127.736 102.429C122.24 98.0659 119.099 91.9181 118.314 83.9855H129.649C130.336 88.8442 132.446 92.5626 135.979 95.1407C139.512 97.7189 144.223 99.0079 150.111 99.0079C155.312 99.0079 159.385 98.0163 162.329 96.0332C165.273 94.05 166.745 91.224 166.745 87.5552C166.745 84.977 165.911 82.746 164.243 80.862C162.575 78.8788 159.238 77.2427 154.233 75.9536L142.162 72.8301C135.292 71.0453 130.14 68.3185 126.705 64.6496C123.27 60.8816 121.553 56.4195 121.553 51.2632C121.553 44.7188 123.957 39.5626 128.766 35.7946C133.575 31.9274 140.101 29.9938 148.345 29.9938C156.49 29.9938 163.114 31.977 168.218 35.9433C173.321 39.9096 176.216 45.4129 176.903 52.4531H165.568C164.881 48.3876 163.016 45.2642 159.974 43.0827C156.932 40.9012 152.908 39.8105 147.903 39.8105C143.094 39.8105 139.365 40.7525 136.715 42.6365C134.065 44.4213 132.741 46.9994 132.741 50.3708C132.741 52.9489 133.673 55.18 135.538 57.064C137.5 58.948 140.739 60.5345 145.253 61.8236L157.03 65.0958C163.998 66.9798 169.248 69.8554 172.781 73.7226C176.314 77.5897 178.08 82.2502 178.08 87.7039C178.08 94.3475 175.578 99.5533 170.573 103.321C165.568 106.99 158.649 108.825 149.817 108.825Z" fill="#020202"/>
<path d="M193.928 107.337V0.246338H205.705V107.337H193.928ZM247.659 107.337V57.6589C247.659 51.9078 246.236 47.5944 243.39 44.7188C240.544 41.8432 236.324 40.4054 230.73 40.4054C225.823 40.4054 221.456 41.4962 217.629 43.6776C213.899 45.8591 210.955 48.8834 208.796 52.7506C206.735 56.6178 205.705 61.1295 205.705 66.2857L203.791 48.2885C206.343 42.6365 210.219 38.1744 215.42 34.9021C220.72 31.6299 226.706 29.9938 233.38 29.9938C241.231 29.9938 247.512 32.2744 252.222 36.8357C257.031 41.2978 259.435 47.1978 259.435 54.5355V107.337H247.659Z" fill="#020202"/>
<path d="M312.818 108.825C305.653 108.825 299.324 107.139 293.828 103.768C288.332 100.297 284.014 95.587 280.874 89.6375C277.733 83.688 276.163 76.8461 276.163 69.1117C276.163 61.3774 277.684 54.585 280.726 48.7347C283.867 42.7852 288.234 38.1744 293.828 34.9021C299.422 31.6299 305.85 29.9938 313.112 29.9938C320.08 29.9938 326.115 31.5307 331.218 34.6047C336.42 37.6786 340.394 41.9919 343.142 47.5448C345.988 53.0977 347.411 59.6421 347.411 67.1781C347.411 68.1697 347.362 69.1117 347.264 70.0041C347.264 70.8966 347.166 71.8881 346.97 72.9789H284.995V63.0135H339.756L335.929 68.5168C335.929 59.3942 333.917 52.4036 329.894 47.5448C325.968 42.5869 320.374 40.1079 313.112 40.1079C305.653 40.1079 299.618 42.7356 295.005 47.991C290.491 53.1472 288.234 60.1379 288.234 68.963C288.234 77.9864 290.491 85.2249 295.005 90.6786C299.618 96.0332 305.752 98.7104 313.406 98.7104C318.215 98.7104 322.435 97.6693 326.066 95.587C329.697 93.4055 332.347 90.3316 334.015 86.3652H345.203C342.75 93.3063 338.628 98.8096 332.838 102.875C327.146 106.841 320.472 108.825 312.818 108.825Z" fill="#020202"/>
<path d="M390.61 108.825C381.385 108.825 374.024 106.693 368.529 102.429C363.033 98.0659 359.892 91.9181 359.107 83.9855H370.442C371.129 88.8442 373.239 92.5626 376.772 95.1407C380.305 97.7189 385.016 99.0079 390.904 99.0079C396.105 99.0079 400.178 98.0163 403.122 96.0332C406.066 94.05 407.538 91.224 407.538 87.5552C407.538 84.977 406.704 82.746 405.036 80.862C403.368 78.8788 400.031 77.2427 395.026 75.9536L382.955 72.8301C376.085 71.0453 370.933 68.3185 367.498 64.6496C364.063 60.8816 362.346 56.4195 362.346 51.2632C362.346 44.7188 364.75 39.5626 369.559 35.7946C374.368 31.9274 380.894 29.9938 389.138 29.9938C397.283 29.9938 403.907 31.977 409.01 35.9433C414.114 39.9096 417.009 45.4129 417.696 52.4531H406.361C405.674 48.3876 403.809 45.2642 400.767 43.0827C397.725 40.9012 393.701 39.8105 388.696 39.8105C383.887 39.8105 380.158 40.7525 377.508 42.6365C374.858 44.4213 373.534 46.9994 373.534 50.3708C373.534 52.9489 374.466 55.18 376.331 57.064C378.293 58.948 381.532 60.5345 386.046 61.8236L397.823 65.0958C404.791 66.9798 410.041 69.8554 413.574 73.7226C417.107 77.5897 418.873 82.2502 418.873 87.7039C418.873 94.3475 416.371 99.5533 411.366 103.321C406.361 106.99 399.442 108.825 390.61 108.825Z" fill="#020202"/>
<path d="M434.721 107.337V0.246338H446.498V107.337H434.721ZM488.452 107.337V57.6589C488.452 51.9078 487.029 47.5944 484.183 44.7188C481.337 41.8432 477.117 40.4054 471.523 40.4054C466.616 40.4054 462.249 41.4962 458.422 43.6776C454.692 45.8591 451.748 48.8834 449.589 52.7506C447.528 56.6178 446.498 61.1295 446.498 66.2857L444.584 48.2885C447.136 42.6365 451.012 38.1744 456.213 34.9021C461.513 31.6299 467.499 29.9938 474.173 29.9938C482.024 29.9938 488.305 32.2744 493.015 36.8357C497.824 41.2978 500.228 47.1978 500.228 54.5355V107.337H488.452Z" fill="#020202"/>
<path d="M554.052 108.825C546.692 108.825 540.215 107.089 534.621 103.619C529.027 100.148 524.66 95.4382 521.519 89.4887C518.477 83.4401 516.956 76.6477 516.956 69.1117C516.956 61.4765 518.526 54.7338 521.667 48.8834C524.807 43.0331 529.125 38.4222 534.621 35.0509C540.215 31.6795 546.692 29.9938 554.052 29.9938C561.511 29.9938 567.988 31.6795 573.483 35.0509C579.077 38.4222 583.395 43.0331 586.438 48.8834C589.578 54.7338 591.148 61.4765 591.148 69.1117C591.148 76.6477 589.578 83.4401 586.438 89.4887C583.395 95.4382 579.077 100.148 573.483 103.619C567.988 107.089 561.511 108.825 554.052 108.825ZM554.052 98.7104C559.155 98.7104 563.571 97.471 567.301 94.992C571.03 92.4139 573.925 88.8938 575.986 84.4317C578.047 79.9695 579.077 74.8133 579.077 68.963C579.077 60.2371 576.771 53.2464 572.159 47.991C567.644 42.7356 561.609 40.1079 554.052 40.1079C546.594 40.1079 540.558 42.7356 535.946 47.991C531.333 53.2464 529.027 60.2371 529.027 68.963C529.027 74.8133 530.057 79.9695 532.118 84.4317C534.179 88.8938 537.074 92.4139 540.803 94.992C544.631 97.471 549.047 98.7104 554.052 98.7104Z" fill="#F08559"/>
<path d="M638.694 139.316C629.763 139.316 622.305 137.184 616.318 132.92C610.43 128.755 606.848 123.203 605.572 116.261H616.76C617.84 120.228 620.244 123.351 623.973 125.632C627.801 128.012 632.953 129.202 639.43 129.202C647.085 129.202 652.875 127.07 656.8 122.806C660.726 118.641 662.689 112.493 662.689 104.362V88.1501L664.161 88.4476C662.492 94.1988 659.156 98.8096 654.151 102.28C649.146 105.652 643.208 107.337 636.339 107.337C629.763 107.337 623.973 105.751 618.968 102.578C613.963 99.3054 610.087 94.7937 607.339 89.0425C604.591 83.2913 603.217 76.5982 603.217 68.963C603.217 61.2286 604.64 54.4363 607.486 48.586C610.332 42.7356 614.307 38.2239 619.41 35.0509C624.611 31.7786 630.647 30.1425 637.516 30.1425C644.582 30.1425 650.47 31.8778 655.181 35.3483C659.99 38.8189 663.179 43.7768 664.75 50.2221L663.425 50.3708V31.4812H674.465V104.362C674.465 115.171 671.276 123.698 664.897 129.945C658.518 136.192 649.784 139.316 638.694 139.316ZM639.283 97.0743C646.643 97.0743 652.482 94.4962 656.8 89.34C661.118 84.1838 663.278 77.1931 663.278 68.368C663.278 59.7413 661.118 52.9489 656.8 47.991C652.482 42.9339 646.643 40.4054 639.283 40.4054C631.824 40.4054 625.936 42.9339 621.618 47.991C617.398 53.0481 615.288 59.9892 615.288 68.8142C615.288 77.441 617.447 84.3325 621.765 89.4887C626.083 94.5458 631.922 97.0743 639.283 97.0743Z" fill="#020202"/>
<path d="M727.967 139.316C719.036 139.316 711.578 137.184 705.592 132.92C699.703 128.755 696.121 123.203 694.845 116.261H706.033C707.113 120.228 709.517 123.351 713.246 125.632C717.074 128.012 722.226 129.202 728.703 129.202C736.358 129.202 742.148 127.07 746.074 122.806C749.999 118.641 751.962 112.493 751.962 104.362V88.1501L753.434 88.4476C751.765 94.1988 748.429 98.8096 743.424 102.28C738.419 105.652 732.481 107.337 725.612 107.337C719.036 107.337 713.246 105.751 708.241 102.578C703.236 99.3054 699.36 94.7937 696.612 89.0425C693.864 83.2913 692.49 76.5982 692.49 68.963C692.49 61.2286 693.913 54.4363 696.759 48.586C699.605 42.7356 703.58 38.2239 708.683 35.0509C713.884 31.7786 719.92 30.1425 726.789 30.1425C733.855 30.1425 739.744 31.8778 744.454 35.3483C749.263 38.8189 752.452 43.7768 754.023 50.2221L752.698 50.3708V31.4812H766.902V63.6317C756.726 83.1834 760.327 98.3202 760.327 98.3202C763.895 109.673 764.24 119.802 754.17 129.945C747.791 136.192 739.057 139.316 727.967 139.316ZM728.556 97.0743C735.916 97.0743 741.756 94.4962 746.074 89.34C750.392 84.1838 752.551 77.1931 752.551 68.368C752.551 59.7413 750.392 52.9489 746.074 47.991C741.756 42.9339 735.916 40.4054 728.556 40.4054C721.097 40.4054 715.209 42.9339 710.891 47.991C706.671 53.0481 704.561 59.9892 704.561 68.8142C704.561 77.441 706.72 84.3325 711.038 89.4887C715.356 94.5458 721.196 97.0743 728.556 97.0743Z" fill="#020202"/>
<path fill-rule="evenodd" clip-rule="evenodd" d="M552.517 112.375C552.238 110.488 551.972 108.698 551.712 107.028L560.992 105.563C561.265 107.32 561.54 109.163 561.825 111.076C563.929 125.189 566.596 143.079 573.48 157.992C577.347 166.366 582.411 173.473 589.171 178.342C595.854 183.156 604.517 186.019 616.08 185.413C653.918 183.43 686.098 172.465 714.146 162.908C722.696 159.995 730.862 157.213 738.687 154.856C746.176 152.599 753.559 150.826 760.672 149.673C769.374 137.344 780.668 127.163 789.606 120.47L795.209 128.062C788.553 133.047 780.617 140.015 773.658 148.27C785.108 147.715 795.726 149.199 804.496 153.651C816.344 159.665 824.116 170.734 826.254 187.358C829.026 208.918 816.817 225.711 800.778 231.66C784.515 237.692 764.813 232.431 753.331 211.539C743.434 193.53 746.338 175.718 754.046 160.583C749.914 161.504 745.681 162.623 741.378 163.919C734.054 166.126 726.226 168.795 717.904 171.634C689.715 181.249 655.842 192.802 616.568 194.861C603.071 195.568 592.268 192.203 583.707 186.037C575.223 179.926 569.266 171.3 564.964 161.981C557.458 145.723 554.588 126.354 552.517 112.375ZM766.117 158.438C756.542 173.378 752.357 190.233 761.548 206.957C770.807 223.804 785.662 227.185 797.532 222.783C809.626 218.297 819.125 205.579 816.939 188.573C815.146 174.628 808.969 166.515 800.269 162.099C791.661 157.729 779.952 156.661 766.117 158.438Z" fill="#F08559"/>
<path fill-rule="evenodd" clip-rule="evenodd" d="M832.273 132.99C820.741 138.689 806.762 139.069 790.596 131.085C774.424 123.097 766.503 111.883 764.486 99.3291C762.525 87.1314 766.281 74.5098 771.572 63.6423L780.005 67.8076C775.089 77.9049 772.246 88.4131 773.758 97.8173C775.212 106.865 780.832 115.725 794.732 122.59C808.637 129.459 819.542 128.744 828.136 124.497C836.983 120.124 844.067 111.664 849.343 101.844L857.604 106.346C851.838 117.078 843.552 127.416 832.273 132.99Z" fill="#F08559"/>
<path d="M826.928 14.5881C826.658 13.8947 828.586 11.784 829.483 10.8072C830.211 9.39701 831.328 6.71735 831.734 5.74287C832.581 3.71263 834.252 9.93344 837.854 10.8539C841.455 11.7744 844.55 11.3948 844.447 15.1638C844.344 18.9328 840.419 21.9734 838.677 23.3016C836.934 24.6298 836.818 21.0529 833.775 18.2889C830.732 15.5249 827.603 16.3215 826.928 14.5881Z" fill="#F08559"/>
<path fill-rule="evenodd" clip-rule="evenodd" d="M806.994 6.60682C801.839 8.79764 797.886 14.1545 793.852 20.7112C790.825 25.6306 787.477 34.6286 784.495 44.1095C781.537 53.5119 779.019 63.1243 777.608 69.0905L773.046 68.0023C774.479 61.9434 777.027 52.2178 780.024 42.6877C782.998 33.2359 786.494 23.7067 789.868 18.2226C793.835 11.7748 798.474 5.0969 805.182 2.24667C812.176 -0.725497 820.62 0.720352 831.481 8.43216L828.775 12.3037C818.552 5.0448 811.863 4.53793 806.994 6.60682Z" fill="#F08559"/>
<path fill-rule="evenodd" clip-rule="evenodd" d="M880.398 42.5415C881.922 47.9589 880.238 54.4118 877.675 61.6787C875.751 67.131 870.865 75.3862 865.375 83.6562C859.931 91.8578 854.049 99.8458 850.304 104.685L854.001 107.586C857.804 102.672 863.755 94.5897 869.273 86.2767C874.746 78.0321 879.952 69.3281 882.096 63.25C884.617 56.1038 886.896 48.2857 884.913 41.2378C882.845 33.8884 876.444 28.1636 863.671 24.4601L862.359 29.0052C874.382 32.4912 878.958 37.4257 880.398 42.5415Z" fill="#F08559"/>
<path d="M863.072 32.1492C863.772 31.9075 864.122 29.0628 864.281 27.7432C864.877 26.2726 866.184 23.6817 866.659 22.7396C867.648 20.7766 861.853 23.5224 858.822 21.3579C855.792 19.1934 854.075 16.5757 851.286 19.0944C848.498 21.6132 848.737 26.5895 848.859 28.7847C848.982 30.9799 851.767 28.754 855.832 29.2969C859.897 29.8397 861.321 32.7534 863.072 32.1492Z" fill="#F08559"/>
<path d="M567.31 69.6234C567.31 77.6349 560.862 84.1295 552.908 84.1295C544.954 84.1295 538.506 77.6349 538.506 69.6234C538.506 61.6119 544.954 55.1173 552.908 55.1173C560.862 55.1173 567.31 61.6119 567.31 69.6234Z" fill="#F08559"/>
</svg>
